<svg width="58" height="24" viewBox="0 0 58 24" fill="none" xmlns="http://www.w3.org/2000/svg">
<path d="M7.80359 15.4282V8.53775C9.21336 8.53775 10.3127 9.97775 10.3127 11.9659C10.3127 13.9882 9.21336 15.4282 7.80359 15.4282ZM6.67007 24C13.6136 24 18.6688 18.6178 18.6688 11.9659C18.6688 5.38225 13.6136 0 6.67007 0H0V24H6.67007ZM58 8.19408V0H40.2255V13.5422H40.0204L37.0955 0H30.1862L28.6397 6.17183H28.5372L26.9537 0H20.3862L14.542 24H21.2121L22.451 18.9245H22.656L23.482 24H29.6365L30.8754 18.9245H31.0805L31.9406 24H49.8176V16.9704H58V11.1082L49.8176 8.64V8.19408H58Z" fill="white"/>
</svg>
