<svg width="251" height="250" viewBox="0 0 251 250" fill="none" xmlns="http://www.w3.org/2000/svg">
<rect x="0.5" width="250" height="250" rx="60" fill="#D9DADF"/>
<path d="M219.882 124.878C219.882 177.071 177.571 219.382 125.378 219.382C73.1846 219.382 30.8735 177.071 30.8735 124.878C30.8735 72.6846 73.1846 30.3735 125.378 30.3735C177.571 30.3735 219.882 72.6846 219.882 124.878Z" stroke="black" stroke-width="6.05952"/>
<path d="M101.381 115.309C106.269 115.309 110.232 103.655 110.232 89.2788C110.232 74.9027 106.269 63.2485 101.381 63.2485C96.493 63.2485 92.5303 74.9027 92.5303 89.2788C92.5303 103.655 96.493 115.309 101.381 115.309Z" fill="black"/>
<path d="M150.325 115.309C155.213 115.309 159.176 103.655 159.176 89.2788C159.176 74.9027 155.213 63.2485 150.325 63.2485C145.436 63.2485 141.474 74.9027 141.474 89.2788C141.474 103.655 145.436 115.309 150.325 115.309Z" fill="black"/>
<path d="M60.3545 131.845C63.2024 164.377 90.7067 189.901 124.216 189.901C157.726 189.901 185.23 164.377 188.078 131.845" stroke="black" stroke-width="6.05952" stroke-linecap="round"/>
<path d="M51.0654 135.328C56.4687 129.956 60.1286 128.72 68.4822 131.845" stroke="black" stroke-width="6.05952" stroke-linecap="round"/>
<path d="M196.788 135.328C191.385 129.956 187.725 128.72 179.371 131.845" stroke="black" stroke-width="6.05952" stroke-linecap="round"/>
</svg>
