<svg width="795" height="52" viewBox="0 0 795 52" fill="none" xmlns="http://www.w3.org/2000/svg">
<path d="M56.9219 45.9112V2.87672L93.2555 2.75488C98.0409 2.75488 101.594 3.74986 103.909 5.73982C106.224 7.72978 107.381 10.7215 107.381 14.7014C107.381 18.6813 106.055 21.6053 103.402 23.4531C105.175 24.421 106.481 25.6935 107.327 27.2841C108.173 28.8748 108.593 30.9189 108.593 33.4097C108.593 37.4708 107.436 40.5641 105.121 42.6759C102.806 44.7876 99.2525 45.8435 94.4671 45.8435L56.9219 45.9112ZM92.1116 10.4846H66.5806V20.1433H92.1116C95.7734 20.1433 97.6077 18.4918 97.6077 15.1955C97.6009 12.0549 95.7734 10.4846 92.1116 10.4846ZM93.3164 27.8662H66.5806V38.1274H93.3164C96.9782 38.1274 98.8057 36.3946 98.8057 32.9359C98.8057 29.5584 96.9782 27.8662 93.3164 27.8662Z" fill="white"/>
<path d="M112.812 45.9112L132.244 2.75488H147.155L166.588 45.9112H156.083L151.981 36.8007H127.418L123.316 45.9112H112.812ZM130.917 28.956H148.482L140.096 10.3086H139.31L130.917 28.956Z" fill="white"/>
<path d="M171.234 46.2163V38.3715L205.936 38.4324C207.71 38.4324 209.063 38.0195 210.011 37.1938C210.959 36.368 211.432 35.0278 211.432 33.18C211.432 31.3322 210.959 29.992 210.011 29.1663C209.063 28.3405 207.71 27.9276 205.936 27.9276H184.331C179.864 27.9276 176.392 26.8514 173.921 24.699C171.444 22.5466 170.212 19.3789 170.212 15.196C170.212 11.013 171.451 7.84529 173.921 5.69289C176.392 3.53372 179.864 2.45752 184.331 2.45752H218.248V10.3023L185.353 10.2414C183.62 10.2414 182.273 10.6339 181.312 11.4191C180.344 12.2042 179.864 13.4632 179.864 15.1892C179.864 16.9219 180.344 18.1741 181.312 18.9593C182.28 19.7444 183.627 20.137 185.353 20.137H206.958C211.426 20.137 214.898 21.2335 217.368 23.4265C219.839 25.6195 221.078 28.8684 221.078 33.1733C221.078 37.4374 219.839 40.6796 217.368 42.8929C214.891 45.1062 211.426 46.2163 206.958 46.2163H171.234Z" fill="white"/>
<path d="M226.939 46.2163V38.3715L261.641 38.4324C263.415 38.4324 264.769 38.0195 265.716 37.1938C266.664 36.368 267.138 35.0278 267.138 33.18C267.138 31.3322 266.664 29.992 265.716 29.1663C264.769 28.3405 263.415 27.9276 261.641 27.9276H240.036C235.569 27.9276 232.097 26.8514 229.626 24.699C227.149 22.5466 225.917 19.3789 225.917 15.196C225.917 11.013 227.156 7.84529 229.626 5.69289C232.103 3.53372 235.576 2.45752 240.036 2.45752H273.953V10.3023L241.058 10.2414C239.326 10.2414 237.979 10.6339 237.017 11.4191C236.05 12.2042 235.569 13.4632 235.569 15.1892C235.569 16.9219 236.05 18.1741 237.017 18.9593C237.985 19.7444 239.332 20.137 241.058 20.137H262.664C267.131 20.137 270.603 21.2335 273.074 23.4265C275.544 25.6195 276.783 28.8684 276.783 33.1733C276.783 37.4374 275.544 40.6796 273.074 42.8929C270.596 45.1062 267.131 46.2163 262.664 46.2163H226.939Z" fill="white"/>
<path d="M284.038 45.9118V2.76221H293.697V38.0738H325.265V45.9118H284.038Z" fill="white"/>
<path d="M332.5 45.9118V2.76221H342.159V45.9118H332.5Z" fill="white"/>
<path d="M351.818 45.9118V2.76221H361.599L392.139 33.7825V2.76221H401.797V45.9118H392.017L361.477 14.8306V45.9118H351.818Z" fill="white"/>
<path d="M411.448 45.9118V2.76221H458.767V10.607H421.107V20.1439H455.268V27.9886H421.107V38.067H458.767V45.9118H411.448Z" fill="white"/>
<path d="M466.609 45.9118V2.76221H502.76C507.228 2.76221 510.7 3.89256 513.17 6.13972C515.648 8.39365 516.879 11.8118 516.879 16.4009C516.879 20.3063 515.973 23.3657 514.165 25.5723C512.358 27.7856 509.779 29.1731 506.442 29.7349L516.399 45.9118H505.414L496.181 30.0395H476.261V45.9118H466.609ZM501.616 10.607H476.268V22.1338L501.616 22.1947C503.39 22.1947 504.743 21.7548 505.691 20.8681C506.639 19.9814 507.112 18.4923 507.112 16.4009C507.112 14.2688 506.639 12.7729 505.691 11.9065C504.743 11.0402 503.383 10.607 501.616 10.607Z" fill="white"/>
<path d="M44.7533 23.8018C44.7533 35.7389 35.0763 45.4159 23.1392 45.4159C11.2021 45.4159 1.52513 35.7389 1.52513 23.8018C1.52513 11.8647 11.2021 2.18773 23.1392 2.18773C35.0763 2.18773 44.7533 11.8647 44.7533 23.8018Z" stroke="white" stroke-width="1.60104"/>
<path d="M17.6249 21.6028C18.7483 21.6028 19.6589 18.9246 19.6589 15.6207C19.6589 12.3169 18.7483 9.63867 17.6249 9.63867C16.5015 9.63867 15.5908 12.3169 15.5908 15.6207C15.5908 18.9246 16.5015 21.6028 17.6249 21.6028Z" fill="white"/>
<path d="M28.872 21.6028C29.9953 21.6028 30.906 18.9246 30.906 15.6207C30.906 12.3169 29.9953 9.63867 28.872 9.63867C27.7486 9.63867 26.8379 12.3169 26.8379 15.6207C26.8379 18.9246 27.7486 21.6028 28.872 21.6028Z" fill="white"/>
<path d="M8.19629 25.4028C8.85078 32.8791 15.1716 38.7449 22.8725 38.7449C30.5734 38.7449 36.8942 32.8791 37.5487 25.4028" stroke="white" stroke-width="1.60104" stroke-linecap="round"/>
<path d="M6.06152 26.2035C7.30326 24.969 8.14436 24.6849 10.0641 25.4029" stroke="white" stroke-width="1.60104" stroke-linecap="round"/>
<path d="M39.5498 26.2035C38.3081 24.969 37.467 24.6849 35.5472 25.4029" stroke="white" stroke-width="1.60104" stroke-linecap="round"/>
<path d="M539.841 19.189V6.79406H535.047V5.54677H546.077V6.79406H541.283V19.189H539.841ZM548.381 19.189V5.54677H553.936C555.391 5.54677 556.664 5.8391 557.755 6.42377C558.86 6.99544 559.717 7.79449 560.328 8.8209C560.939 9.84731 561.244 11.0296 561.244 12.3679C561.244 13.7061 560.939 14.8884 560.328 15.9148C559.717 16.9413 558.86 17.7468 557.755 18.3315C556.664 18.9031 555.391 19.189 553.936 19.189H548.381ZM549.824 17.9417H553.858C555.066 17.9417 556.112 17.7078 556.995 17.2401C557.892 16.7594 558.587 16.1032 559.081 15.2717C559.574 14.4272 559.821 13.4592 559.821 12.3679C559.821 11.2635 559.574 10.2956 559.081 9.46403C558.587 8.63251 557.892 7.98288 556.995 7.51514C556.112 7.03442 555.066 6.79406 553.858 6.79406H549.824V17.9417ZM563.582 14.5116V13.3033H568.688V14.5116H563.582ZM574.56 19.3059C573.573 19.3059 572.638 19.15 571.754 18.8382C570.884 18.5134 570.182 18.0846 569.649 17.5519L570.331 16.441C570.773 16.8958 571.364 17.2726 572.105 17.5714C572.858 17.8702 573.677 18.0196 574.56 18.0196C575.691 18.0196 576.555 17.7728 577.153 17.2791C577.763 16.7853 578.068 16.1227 578.068 15.2912C578.068 14.4597 577.77 13.7971 577.172 13.3033C576.587 12.8096 575.658 12.5628 574.385 12.5628H573.411V11.5298L577.62 6.24837L577.815 6.79406H570.214V5.54677H578.984V6.5407L574.775 11.8222L574.093 11.3739H574.619C576.256 11.3739 577.477 11.7377 578.283 12.4653C579.101 13.1929 579.511 14.1284 579.511 15.2717C579.511 16.0383 579.329 16.7269 578.965 17.3375C578.601 17.9482 578.049 18.4289 577.308 18.7797C576.581 19.1305 575.665 19.3059 574.56 19.3059ZM585.614 19.189L591.85 5.54677H593.273L599.51 19.189H597.989L592.26 6.38479H592.844L587.115 19.189H585.614ZM588.07 15.5446L588.498 14.3752H596.43L596.859 15.5446H588.07ZM606.697 8.85987C607.529 8.85987 608.256 9.02228 608.88 9.3471C609.516 9.65892 610.01 10.1396 610.361 10.7893C610.725 11.4389 610.907 12.2574 610.907 13.2449V19.189H609.523V13.3813C609.523 12.3029 609.25 11.4909 608.704 10.9452C608.172 10.3865 607.418 10.1072 606.444 10.1072C605.716 10.1072 605.079 10.2566 604.534 10.5554C604.001 10.8412 603.585 11.2635 603.286 11.8222C603.001 12.3679 602.858 13.0305 602.858 13.81V19.189H601.474V8.95732H602.799V11.7637L602.585 11.2375C602.91 10.4969 603.429 9.91877 604.144 9.50301C604.859 9.07425 605.71 8.85987 606.697 8.85987ZM621.056 19.189V16.9283L620.998 16.558V12.7771C620.998 11.9066 620.751 11.2375 620.257 10.7698C619.776 10.302 619.055 10.0682 618.094 10.0682C617.431 10.0682 616.801 10.1786 616.203 10.3995C615.606 10.6204 615.099 10.9127 614.683 11.2765L614.06 10.2436C614.579 9.80184 615.203 9.46403 615.93 9.23016C616.658 8.9833 617.425 8.85987 618.23 8.85987C619.555 8.85987 620.575 9.19119 621.29 9.85381C622.017 10.5034 622.381 11.4974 622.381 12.8356V19.189H621.056ZM617.529 19.2864C616.762 19.2864 616.093 19.163 615.521 18.9161C614.963 18.6563 614.534 18.3055 614.235 17.8637C613.936 17.409 613.787 16.8893 613.787 16.3046C613.787 15.7719 613.91 15.2912 614.157 14.8624C614.417 14.4207 614.833 14.0699 615.404 13.81C615.989 13.5372 616.768 13.4008 617.743 13.4008H621.27V14.4337H617.782C616.794 14.4337 616.106 14.6091 615.716 14.9599C615.339 15.3107 615.151 15.7459 615.151 16.2656C615.151 16.8503 615.378 17.318 615.833 17.6688C616.288 18.0196 616.924 18.195 617.743 18.195C618.522 18.195 619.192 18.0196 619.75 17.6688C620.322 17.305 620.738 16.7853 620.998 16.1097L621.309 17.0647C621.05 17.7403 620.595 18.2795 619.945 18.6823C619.309 19.085 618.503 19.2864 617.529 19.2864ZM626.14 19.189V4.72824H627.523V19.189H626.14ZM635.544 19.2864C634.557 19.2864 633.667 19.0655 632.874 18.6238C632.094 18.169 631.477 17.5519 631.023 16.7723C630.568 15.9798 630.34 15.0768 630.34 14.0634C630.34 13.037 630.568 12.134 631.023 11.3544C631.477 10.5749 632.094 9.96424 632.874 9.5225C633.654 9.08075 634.544 8.85987 635.544 8.85987C636.557 8.85987 637.454 9.08075 638.233 9.5225C639.026 9.96424 639.643 10.5749 640.085 11.3544C640.54 12.134 640.767 13.037 640.767 14.0634C640.767 15.0768 640.54 15.9798 640.085 16.7723C639.643 17.5519 639.026 18.169 638.233 18.6238C637.441 19.0655 636.544 19.2864 635.544 19.2864ZM635.544 18.0586C636.285 18.0586 636.941 17.8962 637.512 17.5714C638.084 17.2336 638.532 16.7659 638.857 16.1682C639.195 15.5575 639.364 14.8559 639.364 14.0634C639.364 13.2579 639.195 12.5563 638.857 11.9586C638.532 11.3609 638.084 10.8997 637.512 10.5749C636.941 10.2371 636.291 10.0682 635.563 10.0682C634.836 10.0682 634.186 10.2371 633.615 10.5749C633.043 10.8997 632.588 11.3609 632.25 11.9586C631.913 12.5563 631.744 13.2579 631.744 14.0634C631.744 14.8559 631.913 15.5575 632.25 16.1682C632.588 16.7659 633.043 17.2336 633.615 17.5714C634.186 17.8962 634.829 18.0586 635.544 18.0586ZM647.957 23.0672C647.022 23.0672 646.126 22.9308 645.268 22.658C644.411 22.3851 643.715 21.9954 643.183 21.4886L643.884 20.4363C644.365 20.865 644.956 21.2028 645.658 21.4497C646.372 21.7095 647.126 21.8394 647.918 21.8394C649.218 21.8394 650.173 21.5341 650.783 20.9235C651.394 20.3258 651.699 19.3903 651.699 18.1171V15.564L651.894 13.81L651.758 12.056V8.95732H653.083V17.9417C653.083 19.7087 652.648 21.0014 651.777 21.82C650.92 22.6515 649.647 23.0672 647.957 23.0672ZM647.704 18.7992C646.73 18.7992 645.853 18.5913 645.073 18.1755C644.294 17.7468 643.676 17.1556 643.222 16.4021C642.78 15.6485 642.559 14.7845 642.559 13.81C642.559 12.8356 642.78 11.9781 643.222 11.2375C643.676 10.4839 644.294 9.89928 645.073 9.48352C645.853 9.06776 646.73 8.85987 647.704 8.85987C648.614 8.85987 649.432 9.04827 650.16 9.42505C650.887 9.80184 651.465 10.3605 651.894 11.1011C652.323 11.8417 652.537 12.7447 652.537 13.81C652.537 14.8754 652.323 15.7784 651.894 16.519C651.465 17.2596 650.887 17.8247 650.16 18.2145C649.432 18.6043 648.614 18.7992 647.704 18.7992ZM647.841 17.5714C648.594 17.5714 649.263 17.4155 649.848 17.1037C650.433 16.7788 650.894 16.3371 651.232 15.7784C651.569 15.2067 651.738 14.5506 651.738 13.81C651.738 13.0695 651.569 12.4198 651.232 11.8612C650.894 11.3025 650.433 10.8672 649.848 10.5554C649.263 10.2306 648.594 10.0682 647.841 10.0682C647.1 10.0682 646.431 10.2306 645.833 10.5554C645.249 10.8672 644.787 11.3025 644.449 11.8612C644.125 12.4198 643.962 13.0695 643.962 13.81C643.962 14.5506 644.125 15.2067 644.449 15.7784C644.787 16.3371 645.249 16.7788 645.833 17.1037C646.431 17.4155 647.1 17.5714 647.841 17.5714ZM662.326 19.189V5.54677H668.212C669.732 5.54677 670.908 5.8521 671.74 6.46275C672.584 7.0734 673.006 7.9374 673.006 9.05476C673.006 9.79534 672.831 10.419 672.48 10.9257C672.142 11.4324 671.675 11.8157 671.077 12.0755C670.492 12.3354 669.849 12.4653 669.147 12.4653L669.479 11.9976C670.349 11.9976 671.096 12.134 671.72 12.4068C672.357 12.6667 672.85 13.063 673.201 13.5957C673.552 14.1154 673.727 14.765 673.727 15.5446C673.727 16.7009 673.299 17.5974 672.441 18.234C671.597 18.8706 670.317 19.189 668.602 19.189H662.326ZM663.769 18.0001H668.582C669.778 18.0001 670.694 17.7988 671.33 17.396C671.967 16.9802 672.285 16.3241 672.285 15.4276C672.285 14.5441 671.967 13.901 671.33 13.4982C670.694 13.0825 669.778 12.8746 668.582 12.8746H663.613V11.6858H668.115C669.206 11.6858 670.05 11.4779 670.648 11.0621C671.259 10.6464 671.564 10.0292 671.564 9.21067C671.564 8.37915 671.259 7.762 670.648 7.35923C670.05 6.94347 669.206 6.73559 668.115 6.73559H663.769V18.0001ZM683.139 19.189V16.9283L683.08 16.558V12.7771C683.08 11.9066 682.833 11.2375 682.34 10.7698C681.859 10.302 681.138 10.0682 680.176 10.0682C679.514 10.0682 678.884 10.1786 678.286 10.3995C677.688 10.6204 677.182 10.9127 676.766 11.2765L676.142 10.2436C676.662 9.80184 677.286 9.46403 678.013 9.23016C678.741 8.9833 679.507 8.85987 680.313 8.85987C681.638 8.85987 682.658 9.19119 683.373 9.85381C684.1 10.5034 684.464 11.4974 684.464 12.8356V19.189H683.139ZM679.611 19.2864C678.845 19.2864 678.175 19.163 677.604 18.9161C677.045 18.6563 676.616 18.3055 676.318 17.8637C676.019 17.409 675.869 16.8893 675.869 16.3046C675.869 15.7719 675.993 15.2912 676.24 14.8624C676.499 14.4207 676.915 14.0699 677.487 13.81C678.072 13.5372 678.851 13.4008 679.826 13.4008H683.353V14.4337H679.865C678.877 14.4337 678.188 14.6091 677.799 14.9599C677.422 15.3107 677.234 15.7459 677.234 16.2656C677.234 16.8503 677.461 17.318 677.916 17.6688C678.37 18.0196 679.007 18.195 679.826 18.195C680.605 18.195 681.274 18.0196 681.833 17.6688C682.405 17.305 682.82 16.7853 683.08 16.1097L683.392 17.0647C683.132 17.7403 682.677 18.2795 682.028 18.6823C681.391 19.085 680.586 19.2864 679.611 19.2864ZM690.97 19.2864C690.126 19.2864 689.327 19.1695 688.573 18.9356C687.819 18.6888 687.228 18.3834 686.8 18.0196L687.423 16.9283C687.839 17.2401 688.372 17.5129 689.021 17.7468C689.671 17.9677 690.353 18.0781 691.068 18.0781C692.042 18.0781 692.744 17.9287 693.172 17.6299C693.601 17.318 693.815 16.9088 693.815 16.4021C693.815 16.0253 693.692 15.7329 693.445 15.5251C693.211 15.3042 692.9 15.1418 692.51 15.0378C692.12 14.9209 691.685 14.8235 691.204 14.7455C690.723 14.6676 690.243 14.5766 689.762 14.4727C689.294 14.3687 688.865 14.2193 688.476 14.0244C688.086 13.8165 687.767 13.5372 687.521 13.1864C687.287 12.8356 687.17 12.3679 687.17 11.7832C687.17 11.2245 687.326 10.7243 687.638 10.2826C687.949 9.84081 688.404 9.49651 689.002 9.24965C689.612 8.9898 690.353 8.85987 691.223 8.85987C691.886 8.85987 692.549 8.95082 693.211 9.13272C693.874 9.30162 694.42 9.52899 694.848 9.81483L694.244 10.9257C693.79 10.6139 693.302 10.393 692.783 10.2631C692.263 10.1202 691.743 10.0487 691.223 10.0487C690.301 10.0487 689.619 10.2111 689.177 10.5359C688.748 10.8477 688.534 11.2505 688.534 11.7442C688.534 12.134 688.651 12.4393 688.885 12.6602C689.132 12.8811 689.45 13.0565 689.84 13.1864C690.243 13.3033 690.678 13.4008 691.146 13.4787C691.626 13.5567 692.1 13.6541 692.568 13.7711C693.049 13.875 693.484 14.0244 693.874 14.2193C694.277 14.4012 694.595 14.6676 694.829 15.0184C695.076 15.3562 695.199 15.8044 695.199 16.3631C695.199 16.9607 695.03 17.4804 694.692 17.9222C694.368 18.3509 693.887 18.6888 693.25 18.9356C692.627 19.1695 691.867 19.2864 690.97 19.2864ZM700.486 19.2864C699.642 19.2864 698.843 19.1695 698.089 18.9356C697.335 18.6888 696.744 18.3834 696.316 18.0196L696.939 16.9283C697.355 17.2401 697.888 17.5129 698.537 17.7468C699.187 17.9677 699.869 18.0781 700.584 18.0781C701.558 18.0781 702.26 17.9287 702.688 17.6299C703.117 17.318 703.332 16.9088 703.332 16.4021C703.332 16.0253 703.208 15.7329 702.961 15.5251C702.727 15.3042 702.416 15.1418 702.026 15.0378C701.636 14.9209 701.201 14.8235 700.72 14.7455C700.239 14.6676 699.759 14.5766 699.278 14.4727C698.81 14.3687 698.381 14.2193 697.992 14.0244C697.602 13.8165 697.283 13.5372 697.037 13.1864C696.803 12.8356 696.686 12.3679 696.686 11.7832C696.686 11.2245 696.842 10.7243 697.154 10.2826C697.465 9.84081 697.92 9.49651 698.518 9.24965C699.128 8.9898 699.869 8.85987 700.74 8.85987C701.402 8.85987 702.065 8.95082 702.727 9.13272C703.39 9.30162 703.936 9.52899 704.364 9.81483L703.76 10.9257C703.306 10.6139 702.818 10.393 702.299 10.2631C701.779 10.1202 701.259 10.0487 700.74 10.0487C699.817 10.0487 699.135 10.2111 698.693 10.5359C698.264 10.8477 698.05 11.2505 698.05 11.7442C698.05 12.134 698.167 12.4393 698.401 12.6602C698.648 12.8811 698.966 13.0565 699.356 13.1864C699.759 13.3033 700.194 13.4008 700.662 13.4787C701.142 13.5567 701.617 13.6541 702.084 13.7711C702.565 13.875 703 14.0244 703.39 14.2193C703.793 14.4012 704.111 14.6676 704.345 15.0184C704.592 15.3562 704.715 15.8044 704.715 16.3631C704.715 16.9607 704.546 17.4804 704.209 17.9222C703.884 18.3509 703.403 18.6888 702.766 18.9356C702.143 19.1695 701.383 19.2864 700.486 19.2864ZM712.647 19.189V5.54677H714.089V17.9417H721.729V19.189H712.647ZM723.831 19.189V8.95732H725.215V19.189H723.831ZM724.533 6.69661C724.247 6.69661 724.007 6.59917 723.812 6.40428C723.617 6.20939 723.519 5.97553 723.519 5.70268C723.519 5.42984 723.617 5.20247 723.812 5.02057C724.007 4.82568 724.247 4.72824 724.533 4.72824C724.819 4.72824 725.059 4.81919 725.254 5.00108C725.449 5.18298 725.546 5.41035 725.546 5.68319C725.546 5.96903 725.449 6.20939 725.254 6.40428C725.072 6.59917 724.832 6.69661 724.533 6.69661ZM734.288 8.85987C735.12 8.85987 735.847 9.02228 736.471 9.3471C737.107 9.65892 737.601 10.1396 737.952 10.7893C738.316 11.4389 738.498 12.2574 738.498 13.2449V19.189H737.114V13.3813C737.114 12.3029 736.841 11.4909 736.295 10.9452C735.763 10.3865 735.009 10.1072 734.035 10.1072C733.307 10.1072 732.67 10.2566 732.125 10.5554C731.592 10.8412 731.176 11.2635 730.877 11.8222C730.592 12.3679 730.449 13.0305 730.449 13.81V19.189H729.065V8.95732H730.39V11.7637L730.176 11.2375C730.501 10.4969 731.02 9.91877 731.735 9.50301C732.45 9.07425 733.301 8.85987 734.288 8.85987ZM746.581 19.2864C745.516 19.2864 744.58 19.0655 743.775 18.6238C742.969 18.169 742.339 17.5519 741.884 16.7723C741.43 15.9798 741.202 15.0768 741.202 14.0634C741.202 13.05 741.417 12.1535 741.845 11.3739C742.287 10.5944 742.885 9.98373 743.638 9.54198C744.405 9.08724 745.262 8.85987 746.211 8.85987C747.172 8.85987 748.023 9.08075 748.764 9.5225C749.518 9.95125 750.109 10.5619 750.537 11.3544C750.966 12.134 751.181 13.037 751.181 14.0634C751.181 14.1284 751.174 14.1998 751.161 14.2778C751.161 14.3427 751.161 14.4142 751.161 14.4922H742.255V13.4592H750.421L749.875 13.8685C749.875 13.1279 749.712 12.4718 749.388 11.9001C749.076 11.3155 748.647 10.8607 748.101 10.5359C747.556 10.2111 746.926 10.0487 746.211 10.0487C745.509 10.0487 744.879 10.2111 744.321 10.5359C743.762 10.8607 743.327 11.3155 743.015 11.9001C742.703 12.4848 742.547 13.1539 742.547 13.9075V14.1219C742.547 14.9014 742.716 15.59 743.054 16.1877C743.405 16.7723 743.885 17.2336 744.496 17.5714C745.12 17.8962 745.828 18.0586 746.62 18.0586C747.244 18.0586 747.822 17.9482 748.355 17.7273C748.9 17.5064 749.368 17.1686 749.758 16.7139L750.537 17.6104C750.083 18.1561 749.511 18.5718 748.822 18.8577C748.147 19.1435 747.4 19.2864 746.581 19.2864ZM540.952 44.3059C539.938 44.3059 538.964 44.1435 538.028 43.8187C537.106 43.4809 536.391 43.0521 535.885 42.5324L536.45 41.4215C536.931 41.8893 537.574 42.2856 538.379 42.6104C539.198 42.9222 540.055 43.0781 540.952 43.0781C541.809 43.0781 542.504 42.9742 543.037 42.7663C543.583 42.5454 543.979 42.2531 544.226 41.8893C544.486 41.5255 544.616 41.1227 544.616 40.681C544.616 40.1483 544.46 39.7195 544.148 39.3947C543.849 39.0699 543.453 38.8165 542.959 38.6346C542.465 38.4398 541.92 38.2709 541.322 38.1279C540.724 37.985 540.127 37.8356 539.529 37.6797C538.931 37.5108 538.379 37.2899 537.873 37.0171C537.379 36.7442 536.976 36.3869 536.664 35.9452C536.365 35.4904 536.216 34.8993 536.216 34.1717C536.216 33.4961 536.391 32.8789 536.742 32.3203C537.106 31.7486 537.658 31.2938 538.399 30.956C539.139 30.6052 540.088 30.4298 541.244 30.4298C542.011 30.4298 542.771 30.5403 543.524 30.7611C544.278 30.969 544.928 31.2614 545.473 31.6381L544.986 32.788C544.401 32.3982 543.778 32.1124 543.115 31.9305C542.465 31.7486 541.835 31.6576 541.225 31.6576C540.406 31.6576 539.731 31.7681 539.198 31.9889C538.665 32.2098 538.269 32.5086 538.009 32.8854C537.762 33.2492 537.639 33.665 537.639 34.1327C537.639 34.6654 537.788 35.0942 538.087 35.419C538.399 35.7438 538.802 35.9972 539.295 36.179C539.802 36.3609 540.354 36.5234 540.952 36.6663C541.549 36.8092 542.141 36.9651 542.725 37.134C543.323 37.3029 543.869 37.5238 544.362 37.7966C544.869 38.0565 545.272 38.4073 545.571 38.849C545.883 39.2908 546.038 39.8689 546.038 40.5835C546.038 41.2461 545.857 41.8633 545.493 42.435C545.129 42.9936 544.57 43.4484 543.817 43.7992C543.076 44.137 542.121 44.3059 540.952 44.3059ZM548.776 48.0672C548.295 48.0672 547.834 47.9893 547.392 47.8334C546.964 47.6775 546.593 47.4436 546.281 47.1318L546.925 46.0989C547.184 46.3457 547.464 46.5341 547.763 46.664C548.074 46.807 548.419 46.8784 548.795 46.8784C549.25 46.8784 549.64 46.7485 549.965 46.4886C550.303 46.2418 550.621 45.8 550.92 45.1634L551.582 43.6628L551.738 43.4484L555.948 33.9573H557.312L552.187 45.4168C551.901 46.0794 551.582 46.6056 551.232 46.9954C550.894 47.3851 550.523 47.658 550.121 47.8139C549.718 47.9828 549.27 48.0672 548.776 48.0672ZM551.504 44.4813L546.788 33.9573H548.23L552.401 43.3509L551.504 44.4813ZM564.484 33.8599C565.315 33.8599 566.043 34.0223 566.667 34.3471C567.303 34.6589 567.797 35.1396 568.148 35.7893C568.512 36.4389 568.693 37.2574 568.693 38.2449V44.189H567.31V38.3813C567.31 37.3029 567.037 36.4909 566.491 35.9452C565.959 35.3865 565.205 35.1072 564.23 35.1072C563.503 35.1072 562.866 35.2566 562.321 35.5554C561.788 35.8412 561.372 36.2635 561.073 36.8222C560.787 37.3679 560.645 38.0305 560.645 38.81V44.189H559.261V33.9573H560.586V36.7637L560.372 36.2375C560.697 35.4969 561.216 34.9188 561.931 34.503C562.645 34.0743 563.496 33.8599 564.484 33.8599ZM575.666 44.2864C574.705 44.2864 573.964 44.0266 573.444 43.5069C572.925 42.9872 572.665 42.2531 572.665 41.3046V31.6966H574.049V41.2267C574.049 41.8243 574.198 42.2856 574.497 42.6104C574.809 42.9352 575.25 43.0976 575.822 43.0976C576.433 43.0976 576.939 42.9222 577.342 42.5714L577.829 43.5653C577.557 43.8122 577.225 43.9941 576.836 44.111C576.459 44.2279 576.069 44.2864 575.666 44.2864ZM570.833 35.1072V33.9573H577.167V35.1072H570.833ZM585.571 33.8599C586.403 33.8599 587.13 34.0223 587.754 34.3471C588.391 34.6589 588.884 35.1396 589.235 35.7893C589.599 36.4389 589.781 37.2574 589.781 38.2449V44.189H588.397V38.3813C588.397 37.3029 588.124 36.4909 587.579 35.9452C587.046 35.3865 586.292 35.1072 585.318 35.1072C584.59 35.1072 583.954 35.2566 583.408 35.5554C582.875 35.8412 582.46 36.2635 582.161 36.8222C581.875 37.3679 581.732 38.0305 581.732 38.81V44.189H580.348V29.7282H581.732V36.7637L581.459 36.2375C581.784 35.4969 582.304 34.9188 583.018 34.503C583.733 34.0743 584.584 33.8599 585.571 33.8599ZM597.865 44.2864C596.799 44.2864 595.864 44.0655 595.058 43.6238C594.253 43.169 593.623 42.5519 593.168 41.7723C592.713 40.9798 592.486 40.0768 592.486 39.0634C592.486 38.05 592.7 37.1535 593.129 36.3739C593.571 35.5944 594.168 34.9837 594.922 34.542C595.688 34.0872 596.546 33.8599 597.494 33.8599C598.456 33.8599 599.307 34.0807 600.047 34.5225C600.801 34.9513 601.392 35.5619 601.821 36.3544C602.25 37.134 602.464 38.037 602.464 39.0634C602.464 39.1284 602.457 39.1998 602.444 39.2778C602.444 39.3427 602.444 39.4142 602.444 39.4922H593.538V38.4592H601.704L601.158 38.8685C601.158 38.1279 600.996 37.4718 600.671 36.9001C600.359 36.3155 599.93 35.8607 599.385 35.5359C598.839 35.2111 598.209 35.0487 597.494 35.0487C596.793 35.0487 596.163 35.2111 595.604 35.5359C595.045 35.8607 594.61 36.3155 594.298 36.9001C593.986 37.4848 593.83 38.1539 593.83 38.9075V39.1219C593.83 39.9014 593.999 40.59 594.337 41.1877C594.688 41.7723 595.169 42.2336 595.779 42.5714C596.403 42.8962 597.111 43.0586 597.904 43.0586C598.527 43.0586 599.105 42.9482 599.638 42.7273C600.184 42.5064 600.651 42.1686 601.041 41.7139L601.821 42.6104C601.366 43.1561 600.794 43.5718 600.106 43.8577C599.43 44.1435 598.683 44.2864 597.865 44.2864ZM608.028 44.2864C607.184 44.2864 606.385 44.1695 605.631 43.9356C604.878 43.6888 604.286 43.3834 603.858 43.0196L604.481 41.9283C604.897 42.2401 605.43 42.5129 606.079 42.7468C606.729 42.9677 607.411 43.0781 608.126 43.0781C609.1 43.0781 609.802 42.9287 610.231 42.6299C610.659 42.318 610.874 41.9088 610.874 41.4021C610.874 41.0253 610.75 40.7329 610.503 40.5251C610.27 40.3042 609.958 40.1418 609.568 40.0378C609.178 39.9209 608.743 39.8235 608.262 39.7455C607.781 39.6676 607.301 39.5766 606.82 39.4727C606.352 39.3687 605.924 39.2193 605.534 39.0244C605.144 38.8165 604.826 38.5372 604.579 38.1864C604.345 37.8356 604.228 37.3679 604.228 36.7832C604.228 36.2245 604.384 35.7243 604.696 35.2826C605.008 34.8408 605.462 34.4965 606.06 34.2497C606.671 33.9898 607.411 33.8599 608.282 33.8599C608.944 33.8599 609.607 33.9508 610.27 34.1327C610.932 34.3016 611.478 34.529 611.907 34.8148L611.302 35.9257C610.848 35.6139 610.36 35.393 609.841 35.2631C609.321 35.1202 608.801 35.0487 608.282 35.0487C607.359 35.0487 606.677 35.2111 606.235 35.5359C605.807 35.8477 605.592 36.2505 605.592 36.7442C605.592 37.134 605.709 37.4393 605.943 37.6602C606.19 37.8811 606.508 38.0565 606.898 38.1864C607.301 38.3033 607.736 38.4008 608.204 38.4787C608.684 38.5567 609.159 38.6541 609.626 38.7711C610.107 38.875 610.542 39.0244 610.932 39.2193C611.335 39.4012 611.653 39.6676 611.887 40.0184C612.134 40.3562 612.257 40.8044 612.257 41.3631C612.257 41.9607 612.089 42.4804 611.751 42.9222C611.426 43.3509 610.945 43.6888 610.309 43.9356C609.685 44.1695 608.925 44.2864 608.028 44.2864ZM614.796 44.189V33.9573H616.18V44.189H614.796ZM615.498 31.6966C615.212 31.6966 614.972 31.5992 614.777 31.4043C614.582 31.2094 614.485 30.9755 614.485 30.7027C614.485 30.4298 614.582 30.2025 614.777 30.0206C614.972 29.8257 615.212 29.7282 615.498 29.7282C615.784 29.7282 616.024 29.8192 616.219 30.0011C616.414 30.183 616.511 30.4103 616.511 30.6832C616.511 30.969 616.414 31.2094 616.219 31.4043C616.037 31.5992 615.797 31.6966 615.498 31.6966ZM618.919 44.189V43.273L625.74 34.6394L626.033 35.1072H619.036V33.9573H627.124V34.8538L620.323 43.5069L619.972 43.0391H627.261V44.189H618.919ZM634.159 44.2864C633.093 44.2864 632.158 44.0655 631.352 43.6238C630.547 43.169 629.917 42.5519 629.462 41.7723C629.007 40.9798 628.78 40.0768 628.78 39.0634C628.78 38.05 628.994 37.1535 629.423 36.3739C629.865 35.5944 630.462 34.9837 631.216 34.542C631.983 34.0872 632.84 33.8599 633.788 33.8599C634.75 33.8599 635.601 34.0807 636.342 34.5225C637.095 34.9513 637.686 35.5619 638.115 36.3544C638.544 37.134 638.758 38.037 638.758 39.0634C638.758 39.1284 638.752 39.1998 638.739 39.2778C638.739 39.3427 638.739 39.4142 638.739 39.4922H629.832V38.4592H637.998L637.452 38.8685C637.452 38.1279 637.29 37.4718 636.965 36.9001C636.653 36.3155 636.225 35.8607 635.679 35.5359C635.133 35.2111 634.503 35.0487 633.788 35.0487C633.087 35.0487 632.457 35.2111 631.898 35.5359C631.339 35.8607 630.904 36.3155 630.592 36.9001C630.28 37.4848 630.125 38.1539 630.125 38.9075V39.1219C630.125 39.9014 630.293 40.59 630.631 41.1877C630.982 41.7723 631.463 42.2336 632.073 42.5714C632.697 42.8962 633.405 43.0586 634.198 43.0586C634.821 43.0586 635.4 42.9482 635.932 42.7273C636.478 42.5064 636.946 42.1686 637.335 41.7139L638.115 42.6104C637.66 43.1561 637.089 43.5718 636.4 43.8577C635.724 44.1435 634.977 44.2864 634.159 44.2864ZM641.575 44.189V33.9573H642.9V36.7442L642.763 36.257C643.049 35.4774 643.53 34.8863 644.206 34.4835C644.881 34.0678 645.719 33.8599 646.72 33.8599V35.2046C646.668 35.2046 646.616 35.2046 646.564 35.2046C646.512 35.1916 646.46 35.1851 646.408 35.1851C645.329 35.1851 644.485 35.5164 643.874 36.179C643.264 36.8287 642.958 37.7576 642.958 38.966V44.189H641.575ZM654.79 44.189V30.5468H659.896C661.052 30.5468 662.046 30.7352 662.878 31.1119C663.709 31.4757 664.346 32.0084 664.787 32.71C665.242 33.3986 665.47 34.2367 665.47 35.2241C665.47 36.1855 665.242 37.0171 664.787 37.7187C664.346 38.4073 663.709 38.94 662.878 39.3168C662.046 39.6935 661.052 39.8819 659.896 39.8819H655.589L656.232 39.1998V44.189H654.79ZM656.232 39.3168L655.589 38.6152H659.857C661.221 38.6152 662.254 38.3228 662.956 37.7382C663.67 37.1405 664.027 36.3025 664.027 35.2241C664.027 34.1327 663.67 33.2882 662.956 32.6905C662.254 32.0929 661.221 31.7941 659.857 31.7941H655.589L656.232 31.1119V39.3168ZM668.048 44.189V33.9573H669.373V36.7442L669.237 36.257C669.523 35.4774 670.004 34.8863 670.679 34.4835C671.355 34.0678 672.193 33.8599 673.193 33.8599V35.2046C673.141 35.2046 673.089 35.2046 673.037 35.2046C672.985 35.1916 672.933 35.1851 672.881 35.1851C671.803 35.1851 670.959 35.5164 670.348 36.179C669.737 36.8287 669.432 37.7576 669.432 38.966V44.189H668.048ZM679.794 44.2864C678.806 44.2864 677.916 44.0655 677.124 43.6238C676.344 43.169 675.727 42.5519 675.272 41.7723C674.817 40.9798 674.59 40.0768 674.59 39.0634C674.59 38.037 674.817 37.134 675.272 36.3544C675.727 35.5749 676.344 34.9642 677.124 34.5225C677.903 34.0807 678.793 33.8599 679.794 33.8599C680.807 33.8599 681.703 34.0807 682.483 34.5225C683.276 34.9642 683.893 35.5749 684.334 36.3544C684.789 37.134 685.017 38.037 685.017 39.0634C685.017 40.0768 684.789 40.9798 684.334 41.7723C683.893 42.5519 683.276 43.169 682.483 43.6238C681.69 44.0655 680.794 44.2864 679.794 44.2864ZM679.794 43.0586C680.534 43.0586 681.19 42.8962 681.762 42.5714C682.334 42.2336 682.782 41.7659 683.107 41.1682C683.444 40.5575 683.613 39.8559 683.613 39.0634C683.613 38.2579 683.444 37.5563 683.107 36.9586C682.782 36.3609 682.334 35.8997 681.762 35.5749C681.19 35.2371 680.541 35.0682 679.813 35.0682C679.085 35.0682 678.436 35.2371 677.864 35.5749C677.292 35.8997 676.838 36.3609 676.5 36.9586C676.162 37.5563 675.993 38.2579 675.993 39.0634C675.993 39.8559 676.162 40.5575 676.5 41.1682C676.838 41.7659 677.292 42.2336 677.864 42.5714C678.436 42.8962 679.079 43.0586 679.794 43.0586ZM692.207 48.0672C691.272 48.0672 690.375 47.9308 689.518 47.658C688.66 47.3851 687.965 46.9954 687.432 46.4886L688.134 45.4363C688.615 45.865 689.206 46.2028 689.907 46.4497C690.622 46.7095 691.376 46.8394 692.168 46.8394C693.467 46.8394 694.422 46.5341 695.033 45.9235C695.644 45.3258 695.949 44.3903 695.949 43.1171V40.564L696.144 38.81L696.007 37.056V33.9573H697.333V42.9417C697.333 44.7087 696.897 46.0014 696.027 46.82C695.169 47.6515 693.896 48.0672 692.207 48.0672ZM691.954 43.7992C690.979 43.7992 690.102 43.5913 689.323 43.1755C688.543 42.7468 687.926 42.1556 687.471 41.4021C687.03 40.6485 686.809 39.7845 686.809 38.81C686.809 37.8356 687.03 36.9781 687.471 36.2375C687.926 35.4839 688.543 34.8993 689.323 34.4835C690.102 34.0678 690.979 33.8599 691.954 33.8599C692.863 33.8599 693.682 34.0483 694.409 34.4251C695.137 34.8018 695.715 35.3605 696.144 36.1011C696.573 36.8417 696.787 37.7447 696.787 38.81C696.787 39.8754 696.573 40.7784 696.144 41.519C695.715 42.2596 695.137 42.8247 694.409 43.2145C693.682 43.6043 692.863 43.7992 691.954 43.7992ZM692.09 42.5714C692.844 42.5714 693.513 42.4155 694.097 42.1037C694.682 41.7788 695.143 41.3371 695.481 40.7784C695.819 40.2067 695.988 39.5506 695.988 38.81C695.988 38.0695 695.819 37.4198 695.481 36.8612C695.143 36.3025 694.682 35.8672 694.097 35.5554C693.513 35.2306 692.844 35.0682 692.09 35.0682C691.35 35.0682 690.68 35.2306 690.083 35.5554C689.498 35.8672 689.037 36.3025 688.699 36.8612C688.374 37.4198 688.212 38.0695 688.212 38.81C688.212 39.5506 688.374 40.2067 688.699 40.7784C689.037 41.3371 689.498 41.7788 690.083 42.1037C690.68 42.4155 691.35 42.5714 692.09 42.5714ZM701.183 44.189V33.9573H702.508V36.7442L702.372 36.257C702.658 35.4774 703.138 34.8863 703.814 34.4835C704.49 34.0678 705.328 33.8599 706.328 33.8599V35.2046C706.276 35.2046 706.224 35.2046 706.172 35.2046C706.12 35.1916 706.068 35.1851 706.016 35.1851C704.938 35.1851 704.093 35.5164 703.483 36.179C702.872 36.8287 702.567 37.7576 702.567 38.966V44.189H701.183ZM714.504 44.189V41.9283L714.445 41.558V37.7771C714.445 36.9066 714.198 36.2375 713.704 35.7698C713.224 35.302 712.503 35.0682 711.541 35.0682C710.879 35.0682 710.248 35.1786 709.651 35.3995C709.053 35.6204 708.546 35.9127 708.131 36.2765L707.507 35.2436C708.027 34.8018 708.65 34.464 709.378 34.2302C710.106 33.9833 710.872 33.8599 711.678 33.8599C713.003 33.8599 714.023 34.1912 714.737 34.8538C715.465 35.5034 715.829 36.4974 715.829 37.8356V44.189H714.504ZM710.976 44.2864C710.209 44.2864 709.54 44.163 708.969 43.9161C708.41 43.6563 707.981 43.3055 707.682 42.8637C707.384 42.409 707.234 41.8893 707.234 41.3046C707.234 40.7719 707.358 40.2912 707.604 39.8624C707.864 39.4207 708.28 39.0699 708.852 38.81C709.436 38.5372 710.216 38.4008 711.19 38.4008H714.718V39.4337H711.229C710.242 39.4337 709.553 39.6091 709.164 39.9599C708.787 40.3107 708.598 40.7459 708.598 41.2656C708.598 41.8503 708.826 42.318 709.281 42.6688C709.735 43.0196 710.372 43.195 711.19 43.195C711.97 43.195 712.639 43.0196 713.198 42.6688C713.769 42.305 714.185 41.7853 714.445 41.1097L714.757 42.0647C714.497 42.7403 714.042 43.2795 713.393 43.6823C712.756 44.085 711.95 44.2864 710.976 44.2864ZM732.372 33.8599C733.203 33.8599 733.924 34.0223 734.535 34.3471C735.159 34.6589 735.639 35.1396 735.977 35.7893C736.328 36.4389 736.503 37.2574 736.503 38.2449V44.189H735.12V38.3813C735.12 37.3029 734.86 36.4909 734.34 35.9452C733.833 35.3865 733.112 35.1072 732.177 35.1072C731.475 35.1072 730.865 35.2566 730.345 35.5554C729.838 35.8412 729.442 36.2635 729.156 36.8222C728.883 37.3679 728.747 38.0305 728.747 38.81V44.189H727.363V38.3813C727.363 37.3029 727.103 36.4909 726.584 35.9452C726.064 35.3865 725.336 35.1072 724.401 35.1072C723.712 35.1072 723.108 35.2566 722.588 35.5554C722.069 35.8412 721.666 36.2635 721.38 36.8222C721.107 37.3679 720.971 38.0305 720.971 38.81V44.189H719.587V33.9573H720.912V36.7247L720.698 36.2375C721.01 35.4969 721.51 34.9188 722.199 34.503C722.9 34.0743 723.725 33.8599 724.674 33.8599C725.674 33.8599 726.525 34.1132 727.227 34.6199C727.928 35.1137 728.383 35.8607 728.591 36.8612L728.045 36.6468C728.344 35.8153 728.87 35.1461 729.624 34.6394C730.39 34.1197 731.306 33.8599 732.372 33.8599ZM753.041 33.8599C753.872 33.8599 754.593 34.0223 755.204 34.3471C755.827 34.6589 756.308 35.1396 756.646 35.7893C756.997 36.4389 757.172 37.2574 757.172 38.2449V44.189H755.789V38.3813C755.789 37.3029 755.529 36.4909 755.009 35.9452C754.502 35.3865 753.781 35.1072 752.846 35.1072C752.144 35.1072 751.533 35.2566 751.014 35.5554C750.507 35.8412 750.111 36.2635 749.825 36.8222C749.552 37.3679 749.416 38.0305 749.416 38.81V44.189H748.032V38.3813C748.032 37.3029 747.772 36.4909 747.252 35.9452C746.733 35.3865 746.005 35.1072 745.07 35.1072C744.381 35.1072 743.777 35.2566 743.257 35.5554C742.737 35.8412 742.335 36.2635 742.049 36.8222C741.776 37.3679 741.64 38.0305 741.64 38.81V44.189H740.256V33.9573H741.581V36.7247L741.367 36.2375C741.679 35.4969 742.179 34.9188 742.867 34.503C743.569 34.0743 744.394 33.8599 745.342 33.8599C746.343 33.8599 747.194 34.1132 747.896 34.6199C748.597 35.1137 749.052 35.8607 749.26 36.8612L748.714 36.6468C749.013 35.8153 749.539 35.1461 750.293 34.6394C751.059 34.1197 751.975 33.8599 753.041 33.8599ZM765.271 44.2864C764.205 44.2864 763.27 44.0655 762.464 43.6238C761.659 43.169 761.029 42.5519 760.574 41.7723C760.119 40.9798 759.892 40.0768 759.892 39.0634C759.892 38.05 760.106 37.1535 760.535 36.3739C760.977 35.5944 761.574 34.9837 762.328 34.542C763.094 34.0872 763.952 33.8599 764.9 33.8599C765.862 33.8599 766.713 34.0807 767.453 34.5225C768.207 34.9513 768.798 35.5619 769.227 36.3544C769.656 37.134 769.87 38.037 769.87 39.0634C769.87 39.1284 769.864 39.1998 769.851 39.2778C769.851 39.3427 769.851 39.4142 769.851 39.4922H760.944V38.4592H769.11L768.564 38.8685C768.564 38.1279 768.402 37.4718 768.077 36.9001C767.765 36.3155 767.337 35.8607 766.791 35.5359C766.245 35.2111 765.615 35.0487 764.9 35.0487C764.199 35.0487 763.569 35.2111 763.01 35.5359C762.451 35.8607 762.016 36.3155 761.704 36.9001C761.392 37.4848 761.237 38.1539 761.237 38.9075V39.1219C761.237 39.9014 761.405 40.59 761.743 41.1877C762.094 41.7723 762.575 42.2336 763.185 42.5714C763.809 42.8962 764.517 43.0586 765.31 43.0586C765.933 43.0586 766.512 42.9482 767.044 42.7273C767.59 42.5064 768.058 42.1686 768.447 41.7139L769.227 42.6104C768.772 43.1561 768.201 43.5718 767.512 43.8577C766.836 44.1435 766.089 44.2864 765.271 44.2864ZM772.687 44.189V33.9573H774.012V36.7442L773.875 36.257C774.161 35.4774 774.642 34.8863 775.318 34.4835C775.993 34.0678 776.831 33.8599 777.832 33.8599V35.2046C777.78 35.2046 777.728 35.2046 777.676 35.2046C777.624 35.1916 777.572 35.1851 777.52 35.1851C776.441 35.1851 775.597 35.5164 774.986 36.179C774.376 36.8287 774.07 37.7576 774.07 38.966V44.189H772.687Z" fill="white"/>
</svg>
