<svg width="2000" height="686" viewBox="0 0 2000 686" fill="none" xmlns="http://www.w3.org/2000/svg">
<rect width="2000" height="686" fill="#263850"/>
<g clip-path="url(#clip0_2253_4681)">
<path fill-rule="evenodd" clip-rule="evenodd" d="M1637.99 462.142C1639.43 464.641 1639.43 467.719 1637.99 470.217C1635.97 473.723 1633.05 478.773 1631.03 482.279C1629.58 484.777 1626.92 486.316 1624.03 486.316H1610.1C1607.22 486.316 1604.55 484.777 1603.11 482.279C1601.09 478.773 1598.17 473.723 1596.15 470.217C1594.7 467.719 1594.7 464.641 1596.15 462.142C1598.17 458.637 1601.09 453.586 1603.11 450.081C1604.55 447.583 1607.22 446.043 1610.1 446.043C1614.15 446.043 1619.98 446.043 1624.03 446.043C1626.92 446.043 1629.58 447.583 1631.03 450.081C1633.05 453.586 1635.97 458.637 1637.99 462.142Z" fill="#F7F2EC"/>
</g>
<g clip-path="url(#clip1_2253_4681)">
<path fill-rule="evenodd" clip-rule="evenodd" d="M1804.47 221.765V238.745C1804.47 245.748 1798.79 251.434 1791.78 251.434H1774.8C1767.8 251.434 1762.11 245.748 1762.11 238.745V221.765C1762.11 214.762 1767.8 209.077 1774.8 209.077H1791.78C1798.79 209.077 1804.47 214.762 1804.47 221.765Z" fill="#FF5600"/>
</g>
<g clip-path="url(#clip2_2253_4681)">
<path fill-rule="evenodd" clip-rule="evenodd" d="M1323.19 203.316C1323.19 203.423 1323.2 203.532 1323.2 203.64C1323.2 206.615 1320.78 209.03 1317.81 209.03C1314.83 209.03 1312.42 206.615 1312.42 203.64C1312.42 203.532 1312.42 203.423 1312.43 203.316L1312.98 194.164L1304.44 197.516C1304.34 197.555 1304.24 197.592 1304.14 197.625C1301.31 198.544 1298.26 196.994 1297.34 194.164C1296.42 191.334 1297.98 188.291 1300.81 187.371C1300.91 187.338 1301.01 187.308 1301.12 187.281L1309.99 184.976L1304.17 177.896C1304.1 177.813 1304.03 177.727 1303.97 177.64C1302.22 175.233 1302.75 171.859 1305.16 170.11C1307.57 168.362 1310.94 168.896 1312.69 171.303C1312.75 171.39 1312.81 171.479 1312.87 171.57L1317.81 179.298L1322.74 171.57C1322.8 171.479 1322.86 171.39 1322.92 171.303C1324.67 168.896 1328.05 168.362 1330.45 170.11C1332.86 171.859 1333.39 175.233 1331.65 177.64C1331.58 177.727 1331.52 177.813 1331.45 177.896L1325.62 184.976L1334.5 187.281C1334.6 187.308 1334.7 187.338 1334.81 187.371C1337.64 188.291 1339.19 191.334 1338.27 194.164C1337.35 196.994 1334.31 198.544 1331.48 197.625C1331.37 197.592 1331.27 197.555 1331.17 197.516L1322.64 194.164L1323.19 203.316Z" fill="#71ADC5"/>
</g>
<g clip-path="url(#clip3_2253_4681)">
<path fill-rule="evenodd" clip-rule="evenodd" d="M691.787 190.732L673.639 184.835C673.181 184.686 672.93 184.194 673.079 183.736C673.227 183.278 673.72 183.027 674.178 183.176L692.325 189.072V169.991C692.325 169.51 692.717 169.119 693.198 169.119C693.679 169.119 694.07 169.51 694.07 169.991V189.093L712.282 183.176C712.74 183.027 713.233 183.278 713.381 183.736C713.53 184.194 713.28 184.686 712.822 184.835L694.673 190.732L705.89 206.169C706.173 206.558 706.086 207.104 705.697 207.387C705.307 207.67 704.761 207.584 704.478 207.194L693.23 191.713L681.982 207.194C681.699 207.584 681.153 207.67 680.763 207.387C680.374 207.104 680.287 206.558 680.57 206.169L691.787 190.732Z" fill="#755A3F"/>
</g>
<g clip-path="url(#clip4_2253_4681)">
<path fill-rule="evenodd" clip-rule="evenodd" d="M238.723 251.368C239.557 249.928 241.094 249.043 242.757 249.043C244.42 249.043 245.957 249.928 246.791 251.368C251.458 259.421 259.098 272.603 263.774 280.673C264.61 282.115 264.612 283.894 263.78 285.339C262.948 286.783 261.407 287.673 259.74 287.673H225.774C224.107 287.673 222.567 286.783 221.734 285.339C220.902 283.894 220.904 282.115 221.739 280.673C226.416 272.603 234.056 259.421 238.723 251.368Z" fill="#FF9900"/>
</g>
<g clip-path="url(#clip5_2253_4681)">
<path fill-rule="evenodd" clip-rule="evenodd" d="M1094.55 545.015C1106.98 545.015 1117.07 555.106 1117.07 567.537C1117.07 579.967 1106.98 590.059 1094.55 590.059C1082.12 590.059 1072.03 579.967 1072.03 567.537C1072.03 555.106 1082.12 545.015 1094.55 545.015ZM1094.55 548.379C1083.98 548.379 1075.39 556.963 1075.39 567.537C1075.39 578.11 1083.98 586.694 1094.55 586.694C1105.12 586.694 1113.71 578.11 1113.71 567.537C1113.71 556.963 1105.12 548.379 1094.55 548.379Z" fill="#B7410C"/>
</g>
<g clip-path="url(#clip6_2253_4681)">
<path fill-rule="evenodd" clip-rule="evenodd" d="M487.655 491.076C487.583 490.678 487.546 490.273 487.546 489.868C487.546 486.12 490.59 483.077 494.338 483.077C498.086 483.077 501.129 486.12 501.129 489.868C501.129 490.273 501.093 490.678 501.021 491.076L500.113 496.092L504.603 493.679C504.96 493.487 505.334 493.328 505.719 493.203C509.284 492.044 513.119 493.998 514.277 497.563C515.435 501.127 513.481 504.961 509.916 506.12C509.531 506.245 509.135 506.335 508.733 506.39L503.683 507.077L507.365 510.601C507.658 510.882 507.925 511.188 508.163 511.516C510.366 514.548 509.693 518.798 506.661 521.001C503.628 523.204 499.378 522.531 497.175 519.499C496.936 519.171 496.728 518.822 496.552 518.457L494.338 513.866L492.124 518.457C491.947 518.822 491.739 519.171 491.501 519.499C489.298 522.531 485.047 523.204 482.015 521.001C478.982 518.798 478.309 514.548 480.512 511.516C480.751 511.188 481.018 510.882 481.31 510.601L484.993 507.077L479.942 506.39C479.54 506.335 479.145 506.245 478.759 506.12C475.194 504.961 473.24 501.127 474.399 497.563C475.557 493.998 479.391 492.044 482.956 493.203C483.342 493.328 483.715 493.487 484.072 493.679L488.562 496.092L487.655 491.076Z" fill="#8D8D8D"/>
</g>
<defs>
<clipPath id="clip0_2253_4681">
<rect width="44.1074" height="40.316" fill="white" transform="translate(1595 446)"/>
</clipPath>
<clipPath id="clip1_2253_4681">
<rect width="42.5909" height="42.4645" fill="white" transform="translate(1762 209)"/>
</clipPath>
<clipPath id="clip2_2253_4681">
<rect width="41.5798" height="40.0632" fill="white" transform="translate(1297 169)"/>
</clipPath>
<clipPath id="clip3_2253_4681">
<rect width="40.4424" height="38.673" fill="white" transform="translate(673 169)"/>
</clipPath>
<clipPath id="clip4_2253_4681">
<rect width="43.4755" height="38.673" fill="white" transform="translate(221 249)"/>
</clipPath>
<clipPath id="clip5_2253_4681">
<rect width="45.1185" height="45.1185" fill="white" transform="translate(1072 545)"/>
</clipPath>
<clipPath id="clip6_2253_4681">
<rect width="40.6951" height="39.3049" fill="white" transform="translate(474 483)"/>
</clipPath>
</defs>
</svg>
