<svg width="301" height="30" viewBox="0 0 301 30" fill="none" xmlns="http://www.w3.org/2000/svg">
<g clip-path="url(#clip0_2254_4684)">
<path fill-rule="evenodd" clip-rule="evenodd" d="M9.79085 14.9299L18.1875 23.2796L11.6678 29.7993L7.43578 25.51C2.51745 20.5917 0.344238 18.4756 0.344238 14.9299C0.344238 11.3841 2.51745 9.26805 7.43578 4.34975L11.725 0.117676L18.1303 6.63733L9.79085 14.9299Z" fill="white"/>
<path fill-rule="evenodd" clip-rule="evenodd" d="M26.5838 14.9299L18.1875 23.2796L24.7068 29.7993L28.9389 25.51C33.8572 20.5917 36.0304 18.4756 36.0304 14.9299C36.0304 11.3841 33.8572 9.26805 28.9389 4.34975L24.6496 0.117676L18.2444 6.63733L26.5838 14.9299Z" fill="white"/>
<path d="M64.3264 23.7266C59.496 23.7266 56.7837 20.1225 56.7837 14.9579C56.7837 9.79322 59.496 6.18908 64.3264 6.18908C67.596 6.18908 70.6429 7.8611 71.4229 12.3941L76.4393 11.2794C75.2874 5.44598 70.866 1.58179 64.215 1.58179C56.2635 1.58179 51.1733 7.08083 51.1733 14.995C51.1733 22.872 56.2635 28.334 64.215 28.334C70.6429 28.334 75.2128 24.7298 76.4393 18.6363L71.4229 17.5216C70.6429 22.0546 67.596 23.7266 64.3264 23.7266Z" fill="white"/>
<path d="M91.5987 1.58179C83.6472 1.58179 78.3711 6.93221 78.3711 14.995C78.3711 22.9835 83.6472 28.334 91.5987 28.334C99.5499 28.334 104.826 22.9835 104.826 14.995C104.826 6.93221 99.5499 1.58179 91.5987 1.58179ZM91.5987 23.7266C87.1769 23.7266 83.9815 20.5684 83.9815 14.9579C83.9815 9.34737 87.1769 6.18908 91.5987 6.18908C96.0202 6.18908 99.2156 9.34737 99.2156 14.9579C99.2156 20.5684 96.0202 23.7266 91.5987 23.7266Z" fill="white"/>
<path d="M130.984 27.9624L124.333 17.5216C128.011 16.5184 130.204 13.9547 130.204 10.0905C130.204 5.00011 126.822 1.95337 120.617 1.95337H108.765V27.9624H114.227V18.0046H119.651L124.742 27.9624H130.984ZM114.227 6.26343H119.205C122.81 6.26343 124.742 7.34094 124.742 10.0905C124.742 12.8028 122.735 13.9175 119.168 13.9175H114.227V6.26343Z" fill="white"/>
<path d="M153.834 1.95337V22.7606L142.613 1.95337H134.885V27.9624H140.049V7.11799L151.271 27.9624H158.999V1.95337H153.834Z" fill="white"/>
<path d="M184.302 6.44923V1.95337H164.573V27.9624H184.302V23.4666H170.034V16.9643H183.188V12.4685H170.034V6.44923H184.302Z" fill="white"/>
<path d="M211.537 27.9624L204.887 17.5216C208.565 16.5184 210.757 13.9547 210.757 10.0905C210.757 5.00011 207.376 1.95337 201.171 1.95337H189.318V27.9624H194.78V18.0046H200.205L205.295 27.9624H211.537ZM194.78 6.26343H199.759C203.363 6.26343 205.295 7.34094 205.295 10.0905C205.295 12.8028 203.289 13.9175 199.722 13.9175H194.78V6.26343Z" fill="white"/>
<path d="M236.283 1.95337L229.967 21.7945L223.65 1.95337H215.439V27.9624H220.38V5.7061L226.883 27.9624H233.051L239.553 5.7061V27.9624H244.494V1.95337H236.283Z" fill="white"/>
<path d="M267.643 27.9624H273.105L263.927 1.95337H256.645L247.467 27.9624H252.929L254.453 23.318H266.119L267.643 27.9624ZM255.79 19.1565L260.286 5.446L264.745 19.1565H255.79Z" fill="white"/>
<path d="M295.026 1.95337V22.7606L283.805 1.95337H276.077V27.9624H281.242V7.11799L292.463 27.9624H300.191V1.95337H295.026Z" fill="white"/>
</g>
<defs>
<clipPath id="clip0_2254_4684">
<rect width="300.395" height="30" fill="white"/>
</clipPath>
</defs>
</svg>
