<svg width="241" height="241" viewBox="0 0 241 241" fill="none" xmlns="http://www.w3.org/2000/svg">
<g clip-path="url(#clip0_110_174)">
<rect width="240.273" height="240.273" rx="50" fill="#D09CF8"/>
<g clip-path="url(#clip1_110_174)">
<path d="M250.133 83.9367C246.003 78.9926 241.255 74.5611 237.308 69.4736C233.753 64.9112 230.839 59.799 226.63 55.8531C222.999 52.4143 218.535 49.9863 214.146 47.6014C199.301 39.478 184.323 31.3273 168.312 25.9112C145.017 18.0037 120.226 16.0432 95.71 14.1667C48.5253 10.4859 -10.2139 36.719 -25.8662 68.3926C-43.1142 105.284 -30.0038 145.039 -3.16956 173.679C36.5439 216.043 95.8823 235.092 153.004 231.635C188.94 229.443 224.856 216.826 251.496 192.639C260.063 184.86 267.844 175.559 270.697 164.332C277.517 137.798 267.41 104.549 250.133 83.9367ZM76.4138 38.5917C75.7362 36.0631 75.0508 33.5051 74.8143 30.8584C74.7407 29.9957 74.769 29.0427 75.3565 28.4126C75.7718 28.0807 76.2401 27.8292 76.7478 27.7247L89.8922 23.856C90.2214 23.6733 90.6294 23.7845 90.8042 24.0843C90.8652 24.1941 90.8888 24.2823 90.8909 24.4077C93.3236 32.0754 95.8367 39.6901 98.4458 47.3105C102.218 40.2177 109.282 35.2995 116.858 32.6394C122.157 30.7782 128.264 29.9297 133.269 32.4962C134.774 33.2905 136.187 34.33 137.367 35.558C141.558 39.7922 143.708 45.5818 145.664 51.2343C148.358 59.0527 150.883 66.9477 152.334 75.0675C152.452 75.5085 152.453 75.9811 152.312 76.3969C152.056 76.9698 151.336 77.2256 150.727 77.4204L133.682 82.4918C132.137 79.3132 131.862 75.6999 131.338 72.2162C130.395 65.7565 128.576 59.4371 125.914 53.5011C124.74 50.8849 123.225 48.171 120.593 47.0487C119.09 46.3799 117.354 46.3721 115.741 46.5839C111.998 47.0825 108.504 48.7435 105.756 51.3076C104.244 52.7212 102.945 54.456 102.514 56.4938C102.157 58.1021 102.363 59.8116 102.612 61.4466C104.016 70.3352 106.915 78.9179 109.276 87.6132C109.377 87.8699 109.397 88.1797 109.371 88.4385C109.249 89.0387 108.567 89.316 107.986 89.5029C103.131 91.0244 98.2585 92.3616 93.3247 93.5891C89.468 85.5467 86.5511 76.307 84.2721 67.6843C81.6135 57.9973 79.0136 48.2945 76.4138 38.5917ZM58.1345 62.4607C56.1156 61.3945 54.4291 61.2161 52.1867 61.7854C51.8554 61.8427 51.5477 61.9882 51.2773 62.1551C50.8699 62.5164 50.5901 63.0011 50.4515 63.5424C49.8773 65.398 49.607 67.3297 49.6838 69.2629C46.7267 69.0469 43.8027 68.6013 40.9038 67.897C40.3057 67.8996 39.8405 67.4571 39.8378 66.859C39.8357 66.7335 39.863 66.6002 39.8982 66.4962C40.2859 62.7683 41.0931 58.9595 43.2718 55.9177C47.6213 49.8046 56.104 48.4141 62.1798 52.7421C62.3368 52.8576 62.4937 52.9731 62.6507 53.0886C65.524 55.344 67.3888 58.6574 68.6203 62.0775C69.8519 65.4976 70.5111 69.1341 71.4781 72.6251C73.0222 78.3879 75.3523 83.9087 77.6452 89.4079C78.7916 92.1575 79.9911 94.9874 81.8978 97.2812C79.1733 98.1688 76.4095 98.9094 73.6278 99.4656C73.3338 99.5444 72.9946 99.5723 72.7121 99.4589C72.4139 99.2867 72.1802 99.0026 72.0347 98.695C71.3116 97.4076 70.5964 96.1496 69.8733 94.8623C67.9071 96.9333 67.4816 100.167 65.2897 101.983C63.7971 103.234 61.7425 103.564 59.7857 103.553C54.3797 103.489 48.9531 100.878 45.9026 96.4321C42.8522 91.9868 42.4584 85.6951 45.2902 81.0917C46.3197 79.5238 47.5513 78.1223 48.993 76.9167C51.3944 74.8236 54.0825 73.0949 56.9319 71.7327C58.2723 71.0899 59.754 70.5038 60.5819 69.242C62.1321 67.0304 60.5557 63.7342 58.1345 62.4607ZM20.4365 41.143C20.9263 40.8542 21.5422 41.0358 21.8311 41.5257C21.8998 41.6648 21.9392 41.8118 21.9492 41.9667C26.1062 55.1284 28.2149 68.9965 34.0299 81.5248C36.1216 86.038 38.6973 90.3584 40.2461 95.0801C41.3816 98.4944 41.9584 102.058 42.5352 105.622C42.6376 106.005 42.644 106.381 42.5248 106.76C42.298 107.325 41.6669 107.557 41.0868 107.744C37.7743 108.789 34.4382 109.746 31.0627 110.556C30.6295 110.703 30.1649 110.733 29.7196 110.601C29.1546 110.374 28.8343 109.766 28.5885 109.202C24.3437 99.5932 20.4575 89.794 17.4454 79.729C14.0179 68.2311 11.7654 55.473 6.9954 44.4925L20.4365 41.143ZM111.715 208.443C114.918 210.516 119.966 209.951 121.658 206.504C122.143 205.492 122.316 204.374 122.489 203.256L123.382 197.061C123.407 196.802 123.47 196.565 123.636 196.363C123.898 196.166 124.23 196.109 124.534 196.185C126.848 196.353 129.134 196.654 131.386 197.059C132.294 197.037 133.022 197.755 133.045 198.663C133.778 201.87 134.484 205.21 133.762 208.398C133.267 210.547 132.177 212.478 131.005 214.336C128.552 218.239 125.481 222.182 121.074 223.615C117.711 224.705 113.973 224.162 110.765 222.658C107.558 221.154 104.867 218.756 102.497 216.145C101.046 214.611 99.791 212.868 98.7339 211.039C97.4389 208.676 96.6417 206.054 95.8817 203.453C94.4563 198.603 93.0151 193.695 92.9601 188.668C92.905 183.641 94.4477 178.343 98.1259 174.899C101.456 171.801 106.072 170.564 110.531 169.684C112.504 169.282 114.558 168.952 116.551 169.332C119.581 169.938 122.04 172.178 124.233 174.364C125.953 176.077 127.643 177.799 129.341 179.55C126.475 181.673 122.988 184.183 120.114 186.277C119.106 184.75 118.069 183.232 116.691 182.089C115.314 180.945 113.411 180.194 111.644 180.542C108.561 181.147 106.987 184.563 106.359 187.63C105.638 191.29 105.576 195.057 106.243 198.723C106.941 202.506 108.513 206.371 111.715 208.443ZM117.796 121.76C117.045 120.133 116.227 118.493 114.879 117.342C112.78 115.509 109.725 115.162 106.976 115.488C102.916 115.978 99.0987 117.725 96.051 120.464C94.582 121.803 93.2585 123.45 92.9294 125.397C92.7017 126.782 92.9622 128.225 93.2658 129.593C95.3207 139.379 98.1106 148.968 101.59 158.309L82.1145 163.716C78.7571 155.067 75.3703 146.426 71.9835 137.785C71.0571 135.386 70.0934 132.966 68.7202 130.781C67.848 129.408 66.7248 128.039 65.1811 127.57C63.8374 127.142 62.4025 127.432 60.9969 127.714C57.7448 128.396 54.4633 129.087 51.5515 130.686C48.6397 132.286 46.1743 134.963 45.5938 138.207C45.1383 140.976 46.0711 143.752 47.0311 146.394L55.1152 169.154C55.3137 169.542 55.3652 169.97 55.2539 170.378C55.0565 170.935 54.396 171.175 53.8374 171.325C46.7005 173.268 39.8392 174.477 32.7023 176.42C28.5153 161.029 24.3361 145.668 20.1197 130.285C20.0036 129.969 19.9757 129.63 20.0812 129.318C20.2592 128.924 20.7218 128.768 21.1334 128.658L36.5402 124.53C37.0106 124.404 37.5478 124.291 37.9363 124.565C38.2288 124.833 38.4116 125.163 38.4846 125.553C38.9137 126.919 39.3133 128.293 39.7424 129.659C49.609 114.851 68.8203 109.515 84.9038 117.085C85.3727 117.306 85.8416 117.527 86.3572 117.452C87.0492 117.33 87.4739 116.68 87.885 116.098C93.2283 108.048 103.592 105.208 113.143 103.689C116.715 103.142 120.31 102.682 123.929 102.311C126.421 102.085 129.046 101.886 131.308 102.918C134.351 104.277 136.088 107.467 137.41 110.517C139.27 114.871 140.646 119.419 142.014 123.937C144.069 130.666 146.087 137.373 148.142 144.102C148.237 144.455 148.347 144.866 148.183 145.194C147.973 145.471 147.681 145.675 147.358 145.762L127.998 153.25C125.985 142.444 122.514 131.84 117.796 121.76ZM181.782 206.844L173.978 207.359C173.735 207.393 173.477 207.368 173.253 207.238C173.088 207.094 172.982 206.933 172.897 206.735C172.107 204.961 171.324 203.217 170.534 201.444C169.415 202.09 169.464 203.684 169.176 204.959C168.481 208.013 165.374 209.822 162.477 211.008C160.57 211.771 158.639 212.446 156.648 213.011C155.619 213.287 154.531 213.579 153.488 213.448C152.407 213.297 151.403 212.841 150.557 212.154C147.258 209.603 146.084 205.222 145.042 201.215C141.864 188.768 138.053 175.955 134.287 163.666L140.808 161.54C141.359 161.361 141.976 161.196 142.512 161.43C143.196 161.751 143.366 162.619 143.445 163.386C144.718 173.192 147.441 182.767 151.558 191.78C152.47 193.773 153.486 195.801 155.143 197.28C156.8 198.758 159.212 199.53 161.258 198.698C163.216 197.89 164.398 195.714 164.621 193.606C164.844 191.498 164.277 189.381 163.696 187.33C160.929 177.83 157.244 168.544 155.338 158.844C155.226 158.307 155.268 157.76 155.481 157.262C155.667 156.897 156.183 156.822 156.594 156.711L166.866 154.117C167.277 154.006 167.726 153.918 168.07 154.141C168.413 154.364 168.561 154.797 168.671 155.209C173.021 172.384 177.387 189.618 181.782 206.844ZM165.458 139.809C163.74 139.04 162.612 137.42 161.589 135.835C159.624 132.737 157.834 129.467 157.095 125.883C156.355 122.3 156.835 118.327 158.978 115.389C160.711 113.034 163.366 111.535 165.919 110.126L175.217 104.956C176.533 104.225 177.944 103.374 178.452 101.977C179.082 100.328 178.185 98.3934 176.729 97.4285C175.273 96.4636 173.381 96.3403 171.636 96.6503C166.955 97.5265 163.113 101.77 162.713 106.51C159.041 105.508 155.225 105.144 151.449 105.4C152.808 101.065 154.719 95.2588 158.463 92.6484C160.616 91.1576 163.256 90.5446 165.809 89.9553L173.65 88.1694C177.599 87.2686 181.942 86.4203 185.532 88.2944C188.989 90.1413 190.739 94.0843 191.836 97.8241C192.389 99.5352 192.706 101.309 192.811 103.109C192.894 105.419 192.408 107.723 192.617 110.031C193.004 114.182 195.546 117.786 197.834 121.27C200.123 124.753 202.294 128.741 201.766 132.885L193.402 133.897C192.422 134.002 191.412 134.115 190.541 133.686C189.052 132.951 188.546 130.944 187.078 130.171C186.245 133.766 183.437 136.693 180.127 138.336C176.817 139.979 173.059 140.419 169.345 140.437C168.045 140.407 166.679 140.364 165.458 139.809ZM245.584 164.695C247.217 170.907 248.821 177.126 250.454 183.338C250.556 183.72 250.637 184.14 250.443 184.476C250.226 184.723 249.897 184.906 249.565 184.963L235.041 188.855C234.57 188.981 234.062 189.085 233.631 188.886C233.117 188.614 232.943 187.967 232.823 187.401C230.526 176.829 227.027 166.358 220.817 157.529C219.803 156.098 218.619 154.619 216.905 154.102C215.532 153.682 214.046 154.017 212.648 154.329C209.647 155.007 206.603 155.759 203.942 157.355C201.281 158.95 199.073 161.527 198.725 164.583C198.525 166.306 198.894 168.035 199.284 169.727C201.39 178.995 204.003 188.159 207.107 197.159L193.569 200.849C191.772 192.381 189.96 183.854 186.613 175.832C183.481 168.258 178.885 160.634 180.048 152.507C184.341 151.357 188.976 149.957 193.261 148.777C193.722 148.496 194.338 148.678 194.589 149.146C194.65 149.256 194.682 149.374 194.713 149.491C195.159 150.569 195.576 151.655 196.023 152.733C197.394 149.498 200.045 146.928 203.057 145.113C206.068 143.297 209.477 142.258 212.874 141.411C214.977 140.91 217.096 140.468 219.245 140.491C221.21 140.532 223.179 140.824 225.086 141.353C227.918 142.044 230.688 142.972 233.42 143.878C235.15 144.455 236.918 145.053 238.274 146.233C239.556 147.371 240.387 148.944 241.063 150.528C243.075 155.094 244.329 159.895 245.584 164.695Z" fill="black"/>
<path d="M60.5204 78.7751C61.0712 78.596 61.6614 78.5639 62.2242 78.6652C63.099 78.872 63.7685 79.6065 64.144 80.4198C64.4606 81.2488 64.6382 82.1466 64.6902 83.0466L64.8926 84.9777C65.0197 86.3932 65.1921 87.8597 64.9055 89.26C64.619 90.6604 63.8226 92.0398 62.5704 92.6589C60.9008 93.4844 58.9276 92.9417 57.1602 92.3438C56.0087 91.9275 55.0352 91.1169 54.4045 90.0569C53.9466 89.1712 53.7669 88.1479 53.9501 87.1849C54.1254 86.1925 54.4419 85.2569 54.937 84.3994C55.5963 83.2143 55.9475 81.7021 56.8757 80.6971C57.8039 79.6921 59.1894 79.1002 60.5204 78.7751Z" fill="black"/>
<path d="M171.543 118.293C173.441 117.028 174.324 115.972 176.231 114.736C177.888 113.63 179.612 112.538 181.541 112.21C181.747 112.155 181.969 112.159 182.177 112.229C182.667 112.413 182.825 113.001 182.9 113.517C183.498 118.808 181.63 124.067 177.793 127.742C177.139 128.359 176.322 128.956 175.42 128.882C174.828 128.789 174.292 128.554 173.843 128.171C172.31 127.037 170.985 125.501 170.43 123.665C169.874 121.828 170.178 119.667 171.543 118.293Z" fill="black"/>
</g>
</g>
<defs>
<clipPath id="clip0_110_174">
<rect width="240.273" height="240.273" rx="50" fill="white"/>
</clipPath>
<clipPath id="clip1_110_174">
<rect width="292.219" height="237.428" fill="white" transform="translate(-52.9736 45.4346) rotate(-15)"/>
</clipPath>
</defs>
</svg>
