<svg width="91" height="39" viewBox="0 0 91 39" fill="none" xmlns="http://www.w3.org/2000/svg">
<path d="M90.6341 13.6394V0.941406H63.1651V21.9272H62.8482L58.3323 0.941406H47.6546L45.2647 10.5056H45.1062L42.659 0.941406H32.5095L29.2084 14.5285C27.1398 6.71601 20.2384 0.941406 11.308 0.941406H1V38.1331H11.308C16.823 38.1331 21.5632 35.928 24.8687 32.3893L23.4778 38.1331H33.7859L35.7005 30.2678H36.0174L37.2938 38.1331H46.8051L48.7197 30.2678H49.0366L50.3659 38.1331H77.9933V27.2396H90.6385V18.1552L77.9933 14.3304V13.6394H90.6341ZM13.0642 24.8497V14.1719C15.2429 14.1719 16.9418 16.4034 16.9418 19.4844C16.9418 22.6182 15.2429 24.8497 13.0642 24.8497Z" stroke="white" stroke-width="0.416446" stroke-linejoin="round"/>
</svg>
