<svg width="250" height="250" viewBox="0 0 250 250" fill="none" xmlns="http://www.w3.org/2000/svg">
<rect width="250" height="250" rx="50" fill="#DADADA"/>
<path d="M224.317 115.074H201.313C199.148 115.074 197.394 116.829 197.394 118.994V139.737C197.394 141.902 199.148 143.657 201.313 143.657H224.317C226.481 143.657 228.236 141.902 228.236 139.737V118.994C228.236 116.829 226.481 115.074 224.317 115.074Z" stroke="#231F20" stroke-width="5.66498" stroke-miterlimit="10"/>
<path d="M58.2299 121.755V119.094C58.2299 118.76 58.0973 118.44 57.8612 118.204C57.6251 117.968 57.3048 117.835 56.971 117.835H36.5999C36.4346 117.835 36.2709 117.868 36.1181 117.931C35.9654 117.994 35.8267 118.087 35.7098 118.204C35.5929 118.321 35.5002 118.46 35.4369 118.613C35.3736 118.765 35.341 118.929 35.341 119.094V125.188C35.341 125.354 35.3736 125.517 35.4369 125.67C35.5002 125.823 35.5929 125.962 35.7098 126.079C35.8267 126.195 35.9654 126.288 36.1181 126.351C36.2709 126.415 36.4346 126.447 36.5999 126.447H56.971C58.8149 126.447 60.5832 127.18 61.8871 128.484C63.1909 129.787 63.9234 131.556 63.9234 133.4V139.465C63.9234 141.309 63.1909 143.078 61.8871 144.381C60.5832 145.685 58.8149 146.418 56.971 146.418H36.5999C34.756 146.418 32.9876 145.685 31.6838 144.381C30.38 143.078 29.6475 141.309 29.6475 139.465V136.604M35.341 136.719V139.58C35.3409 139.916 35.4726 140.239 35.7079 140.48C35.9432 140.721 36.2634 140.86 36.5999 140.867H56.971C57.3074 140.86 57.6277 140.721 57.863 140.48C58.0983 140.239 58.2299 139.916 58.2299 139.58V133.514C58.2299 133.18 58.0973 132.86 57.8612 132.624C57.6251 132.388 57.3048 132.255 56.971 132.255H36.5999C34.756 132.255 32.9876 131.523 31.6838 130.219C30.38 128.915 29.6475 127.147 29.6475 125.303V119.209C29.6475 118.297 29.8275 117.394 30.1773 116.552C30.527 115.71 31.0396 114.946 31.6855 114.303C32.3315 113.659 33.0982 113.15 33.9416 112.804C34.7849 112.457 35.6883 112.281 36.5999 112.285H56.971C57.8826 112.281 58.7861 112.457 59.6295 112.804C60.4728 113.15 61.2395 113.659 61.8855 114.303C62.5315 114.946 63.044 115.71 63.3938 116.552C63.7435 117.394 63.9234 118.297 63.9234 119.209V121.869" stroke="#231F20" stroke-width="1.63083" stroke-miterlimit="10"/>
<path d="M70.9619 111.467V146.418H106.054M76.6729 111.467V140.872H106.054" stroke="black" stroke-width="1.63083"/>
<path d="M144.462 129.351V139.909C144.454 140.905 144.053 141.858 143.346 142.561C142.638 143.263 141.682 143.657 140.686 143.657H113.019" stroke="#231F20" stroke-width="5.66498" stroke-miterlimit="10"/>
<path d="M144.462 129.351V118.822C144.455 117.826 144.054 116.872 143.346 116.17C142.639 115.468 141.683 115.074 140.686 115.074H119.628C118.634 115.074 117.681 115.469 116.978 116.172C116.275 116.875 115.88 117.828 115.88 118.822V125.603C115.876 126.096 115.971 126.585 116.158 127.042C116.345 127.498 116.621 127.913 116.969 128.262C117.318 128.611 117.733 128.887 118.189 129.074C118.646 129.261 119.135 129.355 119.628 129.351H144.462Z" stroke="#231F20" stroke-width="5.66498" stroke-miterlimit="10"/>
<path d="M188.124 115.217H157.052V129.523H181.601C182.67 129.523 183.696 129.948 184.453 130.704C185.21 131.461 185.635 132.487 185.635 133.557V139.823C185.627 140.888 185.199 141.906 184.443 142.657C183.687 143.407 182.665 143.828 181.601 143.828H154.22" stroke="#231F20" stroke-width="5.66498" stroke-miterlimit="10"/>
<rect x="28.7725" y="95.4751" width="202.309" height="7.34148" fill="#191919"/>
<rect x="29.0176" y="155.068" width="202.309" height="7.34148" fill="#191919"/>
</svg>
