<svg width="1234" height="988" viewBox="0 0 1234 988" fill="none" xmlns="http://www.w3.org/2000/svg">
<rect width="1234" height="988" fill="#1E1E1E"/>
<path d="M512.45 647.109C512.45 646.45 512.001 647.318 512.45 647.109ZM428.985 469.084C428.985 474.203 430.843 471.329 433.089 469.084C431.532 467.916 430.243 467.168 428.985 469.084ZM410.86 549.67C410.86 554.28 411.249 560.027 413.676 563.679C413.676 569.217 413.676 574.755 413.676 580.263C413.676 583.556 413.227 586.34 410.86 588.675C407.535 591.998 405.767 591.489 401.153 591.489C396.54 591.489 394.772 591.998 391.447 588.675C391.447 585.652 389.949 584.005 389.949 581.551C389.949 577.809 391.327 574.665 395.551 574.665C398.577 574.665 402.442 574.665 402.442 570.564C399.805 566.583 395.701 567.75 391.447 567.75C388.271 567.75 391.507 563.649 387.133 563.649C384.107 566.643 384.556 568.499 384.556 572.6C384.556 574.725 384.556 576.851 384.556 578.946C384.556 580.922 385.844 580.982 385.844 583.047C385.844 588.555 389.949 593.225 389.949 598.344C391.357 599.751 392.765 604.601 392.765 606.546C394.203 607.983 395.581 611.695 395.581 613.671C395.581 615.677 397.079 615.767 397.079 617.772C397.079 619.209 397.079 620.646 397.079 622.083C399.266 623.19 398.367 626.962 398.367 628.968C398.367 633.129 398.367 637.29 398.367 641.481C398.367 646.39 395.671 645.582 391.477 645.582C387.941 643.217 387.162 643.337 387.162 638.697C387.162 636.392 385.874 634.536 385.874 631.812C385.874 628.609 384.586 626.034 384.586 623.4C384.586 621.993 382.998 616.216 381.77 614.988C381.77 609.181 378.954 605.229 378.954 599.691C378.954 596.937 376.138 594.333 376.138 591.489C376.138 589.992 374.58 584.335 373.321 583.077C373.321 576.881 365.832 576.192 360.799 576.192C357.353 576.192 356.694 574.127 356.694 570.594C354.747 568.648 353.878 566.523 353.878 563.709C351.332 561.135 351.931 557.692 349.564 555.297C349.564 552.424 348.276 551.256 348.276 548.412C348.276 544.85 345.46 542.425 345.46 538.713C345.46 536.348 344.171 534.462 344.171 531.589C340.696 529.284 342.673 516.022 342.673 512.191C342.673 510.335 342.673 508.449 342.673 506.593C342.673 504.587 344.171 504.497 344.171 502.492C345.4 500.067 346.448 495.906 348.276 494.08C348.276 490.847 348.276 487.614 348.276 484.381C345.55 481.627 342.673 479.95 342.673 475.969C342.673 471.898 345.13 465.911 342.673 463.456C342.673 461.54 343.542 457.08 341.954 455.823C340.067 454.356 342.014 450.285 339.887 448.129C339.887 445.076 338.599 442.471 338.599 439.927C338.599 433.91 335.783 427.833 335.783 421.816C335.783 417.895 334.285 415.41 334.285 411.908C334.285 408.914 334.285 405.95 334.285 402.957C334.285 399.125 334.285 395.323 334.285 391.492C334.285 388.438 332.997 388.109 332.997 385.624C332.997 383.17 331.978 378.979 330.181 377.213C330.181 371.196 327.364 366.885 327.364 360.628C327.364 354.432 324.788 346.798 320.474 342.518C320.474 339.285 320.474 336.052 320.474 332.819C320.474 329.825 325.237 326.532 327.364 324.407C333.656 324.407 337.91 316.205 344.201 316.205C344.741 314.558 346.748 313.391 348.306 313.391C349.324 311.834 351.092 310.397 352.41 309.08C353.878 307.613 355.226 302.704 355.226 300.668C355.226 295.28 358.342 286.359 362.117 282.557C362.117 276.63 370.535 272.08 370.535 265.973C373.801 262.71 375.329 257.562 380.212 257.562C383.987 257.562 392.495 256.125 388.63 261.872C388.63 264.357 387.612 268.308 385.814 270.074C385.814 272.888 384.916 276.57 382.998 278.486C379.463 281.989 377.396 281.48 377.396 286.898C374.849 289.442 377.186 292.496 374.58 295.1C374.58 299.8 368.139 308.661 364.873 311.924C364.873 314.708 363.944 319.737 362.057 321.623C362.057 324.736 360.769 327.46 360.769 330.035C360.769 336.59 355.166 338.836 355.166 345.332C355.166 348.864 353.878 348.924 353.878 351.588C353.878 355.989 355.166 351.528 355.166 355.719C355.166 359.671 355.166 363.592 355.166 367.544C355.166 371.315 353.878 373.8 353.878 377.243C353.878 378.62 353.878 379.967 353.878 381.344C353.878 383.619 352.38 383.379 352.38 385.654C352.38 387.51 352.38 389.396 352.38 391.252C352.38 393.228 351.092 393.288 351.092 395.353C351.092 398.856 349.594 400.472 349.594 403.765C349.594 407.088 348.306 408.824 348.306 411.967C348.306 416.338 348.006 420.349 347.347 424.69C346.448 430.557 349.834 438.7 353.908 442.801C353.908 446.124 355.196 447.86 355.196 451.003C355.196 453.967 354.118 458.966 356.694 460.702C356.694 470.461 356.694 480.25 356.694 490.009C359.99 496.564 371.584 485.698 374.61 485.698C376.887 483.423 381.291 482.884 384.526 482.884C390.488 482.884 389.17 483.662 392.735 487.195C392.735 489.2 394.173 489.949 395.551 491.296C395.551 493.391 395.072 494.08 397.049 495.397C397.049 499.528 400.105 500.157 402.442 502.522C407.894 497.043 401.153 494.619 401.153 488.512C395.102 482.465 406.756 485.788 406.756 491.326C407.894 492.463 409.572 496.834 409.572 498.211C409.572 501.085 410.86 502.911 410.86 505.335C410.86 508.568 410.86 511.801 410.86 515.034C410.86 518.357 409.811 518.028 408.044 520.632C403.67 522.818 408.044 534.133 408.044 537.216C408.044 540.12 409.542 541.856 409.542 544.102C409.542 546.466 409.092 547.933 410.86 549.67ZM374.61 528.984C375.718 527.308 378.594 527.009 380.212 526.17C381.89 523.656 384.556 522.758 380.212 520.572C378.594 520.572 375.538 521.979 374.61 523.386C372.033 524.674 370.535 528.984 374.61 528.984ZM366.401 519.076C369.157 519.076 369.307 516.262 372.003 516.262C374.19 514.077 372.243 513.927 370.505 512.161C367.42 512.191 362.446 516.441 366.401 519.076ZM381.74 558.081C381.74 554.01 378.265 555.148 380.242 558.081C380.721 558.081 381.231 558.081 381.74 558.081ZM383.028 546.886C383.028 541.976 370.505 542.874 370.505 548.382C372.902 550.777 383.028 550.598 383.028 546.886ZM384.526 534.373C380.961 532.008 379.942 534.373 376.108 534.373C371.853 534.373 370.745 534.133 367.689 537.187C371.584 541.048 371.883 538.683 376.108 538.683C378.355 535.301 378.474 535.869 382.998 535.869C383.537 535.39 384.047 534.882 384.526 534.373ZM405.258 513.478C407.355 513.478 407.954 513.807 409.572 512.191C406.456 509.077 409.871 505.306 403.969 505.306C399.985 509.257 401.483 509.706 405.258 513.478ZM405.258 513.478C405.677 513.478 404.808 513.029 405.258 513.478ZM267.626 580.293C263.522 580.293 263.312 584.005 263.312 587.178C267.117 587.178 271.042 580.293 267.626 580.293ZM270.443 569.068C270.443 571.672 268.945 572.809 268.945 576.102C268.945 580.653 270.622 579.246 273.259 577.479C275.026 577.479 273.648 569.068 270.443 569.068ZM383.028 535.899C383.448 535.241 382.159 535.899 383.028 535.899ZM262.024 598.404C265.05 598.404 262.024 594.842 262.024 598.404ZM224.486 306.356C224.486 304.26 223.407 305.069 221.669 305.069C221.669 307.374 221.669 309.679 221.669 311.954C227.871 311.954 224.486 310.337 224.486 306.356ZM266.099 373.171C268.375 369.759 273.229 372.962 273.229 367.993C273.229 362.425 272.749 361.736 268.915 357.845C267.237 357.845 266.099 362.664 266.099 364.73C264.511 366.376 263.372 373.171 266.099 373.171ZM679.171 663.693C674.558 663.693 670.214 660.879 665.36 660.879C660.956 660.879 655.803 658.065 651.34 658.065C645.797 658.065 640.255 658.065 634.742 658.065C633.304 658.065 631.866 658.065 630.428 658.065C628.421 658.065 628.331 659.562 626.324 659.562C625.395 660.43 624.526 661.358 623.747 662.376C623.747 664.262 625.036 664.591 625.036 666.477C626.054 666.477 631.177 668.153 631.926 669.291C635.342 669.291 636.959 670.578 640.195 670.578C643.4 670.578 645.318 669.291 648.733 669.291C651.519 669.291 652.897 672.105 655.624 672.105C661.166 672.105 666.709 672.105 672.221 672.105C675.217 672.105 686.841 663.693 679.171 663.693ZM723.84 694.317C723.84 693.868 723.391 694.736 723.84 694.317ZM654.156 474.682C654.605 474.023 654.156 475.101 654.156 474.682ZM266.099 364.76C266.099 364.311 265.679 365.179 266.099 364.76ZM277.333 602.475C280.988 606.127 282.935 600.26 282.935 596.877C278.591 596.877 277.333 597.775 277.333 602.475ZM192.34 705.512C192.34 709.404 194.617 708.087 197.942 708.087C202.136 708.087 202.046 708.536 202.046 703.986C202.046 698.537 192.34 702.399 192.34 705.512ZM607.15 558.081C607.57 558.081 606.491 557.453 607.15 558.081ZM718.238 670.608C718.238 670.578 718.238 670.578 718.238 670.608C718.118 670.698 717.998 670.817 718.238 670.608ZM220.171 631.812C220.591 631.153 219.752 632.021 220.171 631.812ZM263.312 517.789C263.732 516.711 262.863 517.789 263.312 517.789ZM266.099 498.181C266.099 497.732 265.679 498.6 266.099 498.181ZM317.658 549.67C317.658 549.25 317.238 550.119 317.658 549.67ZM249.501 456.571C249.411 456.631 249.381 456.691 249.292 456.751C249.351 456.721 249.651 456.571 249.501 456.571ZM209.177 613.701C209.596 614.12 209.177 613.252 209.177 613.701ZM255.104 514.975C255.313 514.555 254.474 515.424 255.104 514.975ZM227.272 588.705C227.272 588.256 226.643 589.124 227.272 588.705ZM255.104 588.705C258.129 588.705 258.878 588.376 256.392 585.891C254.355 585.891 255.104 586.909 255.104 588.705ZM328.653 526.2C328.653 523.476 323.26 519.405 323.26 523.386C323.26 527.368 325.207 526.2 328.653 526.2ZM366.401 519.076C366.85 519.076 365.772 518.657 366.401 519.076ZM207.649 346.649C208.098 347.068 208.098 346.23 207.649 346.649ZM337.071 539.971C337.071 545.03 331.469 543.024 331.469 549.67C333.476 551.675 334.495 558.081 330.181 558.081C327.005 561.225 322.99 559.069 320.474 556.585C318.227 554.309 312.355 555.687 310.767 558.081C303.188 558.081 297.705 563.679 289.856 563.679C286.62 563.679 282.965 560.865 279.4 560.865C274.667 560.865 273.978 565.984 270.443 567.75C270.443 563.38 264.091 562.153 260.736 562.153C257.68 564.188 257.92 568.469 257.92 571.852C256.602 572.45 256.092 573.378 256.422 574.665C255.164 574.366 254.205 574.875 253.606 576.162C253.606 578.288 254.864 583.047 252.317 583.047C248.992 583.047 243.599 581.88 241.113 584.335C237.158 584.335 237.038 593.704 239.825 595.53C244.468 597.865 246.386 595.53 250.819 595.53C255.313 595.53 256.482 592.716 260.736 595.53C260.736 599.302 256.242 602.595 253.606 605.229C249.801 605.229 246.445 608.043 242.611 608.043C238.806 608.043 237.098 613.701 235.72 616.455C231.256 616.455 228.949 617.383 225.804 620.556C225.804 622.891 225.145 624.717 227.302 626.154C228.35 628.25 230.118 627.92 230.118 630.465C230.118 633.428 222.718 635.853 220.201 635.853C218.793 637.26 216.696 638.667 214.599 638.667C213.311 639.954 212.802 641.481 211.783 642.978C210.375 643.666 209.027 647.019 207.679 648.366C205.821 648.366 203.934 648.366 202.076 648.366C198.661 644.953 195.845 644.894 192.37 648.366C193.957 649.953 195.635 652.677 197.972 652.677C200.069 652.677 200.489 652.407 202.076 653.964C204.833 653.964 208.817 652.976 210.495 655.461C215.138 655.461 220.201 653.754 220.201 659.562C223.976 663.334 219.033 662.376 216.097 662.376C213.161 665.309 207.499 669.111 211.783 673.362C213.611 673.362 214.539 673.931 216.097 674.859C218.913 674.859 221.699 674.859 224.516 674.859C225.414 672.165 231.796 673.362 234.222 673.362C237.757 673.362 239.285 669.261 242.641 669.261C245.876 669.261 250.849 670.937 250.849 674.859C250.849 681.115 245.607 675.008 243.959 673.362C238.297 673.362 241.652 678.96 237.068 678.96C234.042 680.966 231.196 680.457 227.272 680.457C224.066 680.457 213.341 678.541 213.341 683.031C211.753 684.618 211.753 685.516 210.525 687.342C208.518 687.342 208.428 685.845 206.42 685.845C201.807 681.235 200.998 687.641 199.29 690.156C199.29 692.64 193.718 689.976 192.4 688.659C190.512 690.545 191.201 693.059 188.295 690.156C188.295 687.791 188.595 687.671 186.797 685.845C186.797 683.121 186.797 680.397 186.797 677.643C183.022 671.955 185.509 658.634 185.509 651.719C185.509 633.129 186.797 615.228 186.797 596.818C186.797 594.093 186.797 591.369 186.797 588.615C187.486 586.879 188.295 586.25 188.295 584.305C188.295 582.299 186.797 582.209 186.797 580.203C186.797 578.826 186.797 577.479 186.797 576.102C186.797 571.881 185.509 569.277 185.509 564.907C185.509 560.027 185.509 555.148 185.509 550.238C185.509 544.491 185.509 538.743 185.509 532.996C185.509 529.583 186.797 527.068 186.797 523.297C186.797 510.724 186.797 498.151 186.797 485.578C186.797 437.382 185.509 389.306 185.509 341.171C188.265 337.04 191.111 335.333 191.111 329.975C191.111 326.742 186.797 324.976 186.797 321.563C183.232 318.001 186.558 306.476 189.613 303.452C192.519 300.548 195.216 297.854 199.32 297.854C201.747 300.249 202.136 302.824 202.136 306.266C202.136 310.098 203.365 313.391 207.739 313.391C207.739 317.312 206.45 318.42 206.45 321.593C209.506 321.593 213.97 327.819 216.157 330.005C221.1 330.005 220.261 330.933 220.261 335.603C220.261 340.123 227.122 332.789 228.68 332.789C231.166 332.789 232.574 335.154 234.282 336.89C237.548 340.153 239.495 339.704 243.989 339.704C245.756 337.938 247.254 338.417 249.591 338.417C250.64 335.333 253.696 336.141 253.696 339.285C253.696 341.739 253.696 344.164 253.696 346.619C253.696 348.894 255.193 348.654 255.193 350.929C256.122 352.785 258.01 352.666 258.01 355.031C258.699 356.378 259.478 358.234 260.826 359.132C260.826 360.988 260.826 362.874 260.826 364.73C260.826 366.915 259.328 366.705 259.328 368.831C256.452 371.705 259.328 373.95 259.328 377.243C259.328 379.428 260.826 379.218 260.826 381.344C260.826 382.781 260.826 384.217 260.826 385.654C260.826 389.306 260.826 392.988 260.826 396.641C260.826 399.874 262.683 407.836 258.01 407.836C255.104 407.836 251.059 409.034 249.591 411.937C245.487 414.692 251.089 417.745 253.696 417.745C258.729 417.745 260.826 416.308 260.826 421.846C256.272 423.343 253.696 425.319 253.696 430.258C256.422 431.635 257.65 434.359 260.826 434.359C260.826 436.245 262.114 436.574 262.114 438.46C262.114 440.556 262.114 442.651 262.114 444.747C262.114 447.77 260.826 450.285 260.826 453.757C260.826 457.499 260.826 461.241 260.826 464.953C260.826 469.144 256.542 467.737 255.223 470.341C251.538 472.826 256.512 480.25 250.909 480.25C247.194 483.932 249.651 488.422 253.725 484.351C255.823 482.255 254.474 480.789 256.542 478.753C258.729 478.753 260.856 477.466 260.856 480.25C262.473 483.483 261.095 486.895 264.96 488.452C267.806 485.638 267.237 482.465 270.562 480.25C275.116 480.25 273.768 484.351 277.453 484.351C278.921 482.884 280.029 480.25 281.557 480.25C281.557 482.585 283.055 482.285 283.055 484.979C283.055 488.093 282.756 492.733 287.16 492.733C288.688 494.259 289.976 493.331 289.976 495.307C289.976 497.163 289.976 499.049 289.976 500.905C289.976 504.288 285.871 505.964 285.871 509.317C285.871 511.532 294.02 517.729 287.16 517.729C283.295 517.729 281.857 522.099 284.343 524.614C287.369 527.637 288.238 527.428 292.762 527.428C295.668 527.428 298.304 524.614 300.971 524.614C302.169 523.416 305.285 519.495 305.285 523.327C305.285 527.398 306.124 525.991 308.101 528.924C311.067 528.924 313.523 533.594 314.991 535.81C319.006 535.899 337.071 533.325 337.071 539.971ZM213.281 349.463C215.348 349.463 216.067 348.984 217.385 350.959C221.31 350.959 222.988 351.049 222.988 346.649C222.988 342.757 217.655 342.548 214.569 342.548C211.274 339.225 209.926 344.374 207.679 346.649C209.836 348.834 210.255 349.463 213.281 349.463ZM209.177 613.701C212.292 616.814 221.28 614.569 216.067 609.39C211.753 605.05 209.177 609.54 209.177 613.701ZM221.669 630.495C218.284 625.376 214.809 628.998 210.465 628.998C210.465 634.326 216.756 633.488 220.171 631.812C220.681 631.363 221.16 630.944 221.669 630.495ZM227.272 588.705C227.272 586.43 225.774 586.669 225.774 584.394C222.538 584.394 223.437 585.891 220.171 585.891C217.565 585.891 215.168 585.263 213.281 587.178C213.281 589.693 216.397 592.776 218.883 592.776C223.916 592.776 223.437 591.25 227.272 588.705ZM232.904 410.65C228.86 407.926 223.677 408.465 220.171 411.937C220.171 416.188 229.369 413.973 231.376 411.937C231.586 411.728 231.496 411.818 231.376 411.937C231.885 411.518 232.395 411.099 232.904 410.65ZM238.297 359.162C238.297 356.617 236.05 352.277 232.904 352.277C230.687 353.773 232.395 355.09 230.088 355.09C227.961 355.09 227.901 353.803 225.774 353.803C220.471 353.803 222.808 362.006 227.272 362.006C231.915 362.006 233.473 361.527 236.978 359.192C237.428 359.162 237.847 359.162 238.297 359.162ZM248.213 345.362C248.213 342.188 246.715 343.565 246.715 341.26C243.3 341.26 243.06 342.997 245.427 345.362C246.326 345.362 247.284 345.362 248.213 345.362ZM257.92 463.456C257.92 458.726 253.785 456.571 249.501 456.571C249.262 456.721 249.262 456.751 249.292 456.751C244.948 459.984 255.433 463.456 257.92 463.456ZM252.317 513.478C252.317 516.292 253.036 516.382 255.134 514.975C256.602 512.041 253.696 510.694 252.317 513.478ZM263.312 513.478C261.665 515.094 259.178 517.789 263.312 517.789C264.301 515.304 265.529 515.663 263.312 513.478ZM266.099 498.181C266.099 490.188 260.496 498.181 259.208 498.181C259.208 500.695 259.987 501.145 262.024 502.492C265.08 502.492 264.391 499.887 266.099 498.181ZM273.229 499.678C273.229 494.738 268.196 498.959 271.731 502.492C273.019 501.893 273.528 500.935 273.229 499.678ZM317.658 549.67C317.658 547.664 316.16 547.574 316.16 545.568C310.797 545.598 313.613 553.741 317.658 549.67ZM380.212 558.081C380.661 558.081 379.793 557.453 380.212 558.081ZM300.851 570.594C307.052 570.594 300.851 564.398 300.851 570.594ZM224.486 662.406C224.695 661.747 223.826 662.406 224.486 662.406ZM225.774 663.693C229.069 663.693 232.395 663.693 235.69 663.693C240.813 663.693 245.397 659.173 245.397 653.994C245.397 648.216 236.889 651.928 235.69 655.491C232.814 655.491 231.466 656.778 228.56 656.778C228.081 656.778 224.905 661.059 224.456 662.376C220.92 662.406 223.916 663.693 225.774 663.693ZM932.414 393.857C932.864 393.857 931.995 404.633 932.414 393.857ZM554.303 352.247C557.748 352.247 559.306 353.743 562.511 353.743C568.773 353.743 574.585 359.132 580.637 359.132C586.119 359.132 593.429 366.286 597.473 370.328C601.578 370.328 601.877 375.566 604.364 377.213C606.641 379.488 611.255 383.768 611.255 386.912C615.179 390.833 616.977 400.921 623.777 400.921C626.953 404.124 626.354 406.16 626.354 410.62C626.354 414.063 623.238 419.84 625.785 422.385C627.163 423.762 625.185 424.63 627.642 424.63C630.458 426.037 629.559 425.917 633.244 425.917C637.049 425.917 639.146 424.63 642.981 424.63C648.164 424.63 653.317 424.63 658.5 424.63C661.915 424.63 665.031 422.864 668.206 421.816C669.345 418.404 673.809 417.446 673.809 413.404C673.809 410.231 675.097 408.345 675.097 404.993C675.097 401.67 677.344 399.395 680.699 399.395C682.257 397.808 681.988 397.419 681.988 395.294C681.988 392.599 683.486 392.031 683.486 389.696C683.486 383.798 688.878 379.099 688.878 373.111C691.155 369.699 692.833 368.352 696.008 366.226C699.783 366.226 702.689 366.705 705.715 364.73C705.715 361.796 710.568 358.383 712.606 356.318C715.482 353.444 717.129 353.743 721.024 353.743C722.762 351.169 727.885 352.247 730.731 352.247C736.782 352.247 742.804 352.247 748.856 352.247C753.529 352.247 772.254 349.343 775.16 353.743C780.013 353.743 794.783 356.408 794.783 349.433C794.783 347.487 791.937 341.23 790.469 339.734C790.469 337.848 789.181 337.518 789.181 335.633C787.083 333.537 788.402 332.04 786.364 330.035C786.364 326.383 782.26 323.988 782.26 320.336C778.425 320.336 776.298 321.623 772.553 321.623C770.007 319.917 764.135 317.252 764.135 313.421C764.135 311.235 765.423 311.205 765.423 309.11C762.877 309.11 762.188 310.607 760.031 310.607C754.758 310.607 755.956 306.536 752.9 303.482C750.953 301.506 748.047 301.447 746.01 303.482C743.913 305.608 742.445 304.26 740.407 306.296C737.052 302.973 734.056 301.237 730.701 297.884C727.166 294.322 725.488 290.101 722.282 286.898C719.556 284.174 719.466 281.031 719.466 277.199C719.466 274.235 719.616 274.385 716.65 274.385C714.673 276.331 715.362 278.636 715.362 281.27C717.788 283.695 716.65 289.143 716.65 292.466C712.306 296.777 709.25 293.274 705.655 289.652C705.655 287.377 704.157 287.616 704.157 285.341C704.157 281.839 701.401 282.528 698.765 282.528C698.765 285.341 697.506 292.047 700.053 293.723C698.345 294.861 698.195 296.537 695.948 296.537C694.181 296.537 693.132 295.789 693.132 297.824C689.387 297.824 686.242 288.874 686.242 285.311C686.242 283.096 683.486 278.666 681.928 277.109C681.928 274.295 681.029 270.613 679.112 268.697C679.112 265.913 676.295 264.477 676.295 261.812C674.917 259.777 675.007 259.926 675.007 257.502C671.742 257.502 671.592 258.13 669.405 260.316C667.877 261.842 663.293 268.787 661.196 264.626C658.799 262.201 656.223 261.812 652.778 261.812C650.92 263.07 649.662 266.722 648.673 268.697C648.673 272.559 641.543 275.253 641.543 269.985C639.626 268.069 638.727 264.596 638.727 261.782C638.727 258.1 633.155 261.752 631.836 263.07C627.852 263.07 622.339 273.427 622.339 277.079C619.613 279.803 618.085 282.408 615.209 285.282C611.944 288.544 610.056 288.095 605.502 288.095C595.736 288.095 601.877 279.265 605.502 275.583C607.989 273.098 609.817 273.098 609.817 268.697C609.817 265.794 604.753 262.321 602.686 260.286C599.151 260.286 598.372 260.495 595.796 263.1C593.848 265.045 590.104 268.697 587.377 268.697C585.73 270.344 581.565 272.799 579.169 272.799C575.963 274.954 576.293 277.169 573.566 279.923C573.566 284.623 569.462 290.041 569.462 295.01C569.462 301.447 568.593 307.523 566.646 313.331C566.646 318.989 564.339 325.155 560.294 329.196C558.497 330.993 556.909 333.268 555.411 335.513C550.738 335.513 551.307 340.452 551.307 343.715C551.487 346.23 552.295 350.929 554.303 352.247ZM922.707 541.497C923.157 540.839 922.288 541.707 922.707 541.497ZM292.642 453.757C295.308 453.757 293.87 450.883 292.642 449.656C288.927 449.686 288.927 453.757 292.642 453.757ZM975.555 438.46C975.555 438.041 975.136 438.909 975.555 438.46ZM810.122 288.245C810.122 285.042 805.808 282.049 805.808 285.431C805.808 287.167 808.145 288.245 810.122 288.245ZM384.526 441.274C380.182 438.4 374.939 439.658 372.003 444.088C372.003 446.603 370.505 447.8 370.505 450.973C373.202 450.973 373.771 452.47 376.108 452.47C379.793 452.47 384.526 457.02 384.526 460.672C384.526 463.486 385.305 470.371 388.63 470.371C390.458 472.197 392.196 472.616 394.233 474.682C396.39 476.837 398.337 481.776 398.337 475.969C398.337 471.419 397.438 466.689 394.233 463.456C390.758 461.151 385.814 456.511 385.814 452.47C383.747 449.357 384.526 445.076 384.526 441.274ZM303.637 519.076C306.303 521.74 304.356 522.369 307.951 520.572C310.498 520.572 311.187 519.076 313.344 519.076C315.531 519.076 317.658 517.25 317.658 514.975C315.8 514.975 313.913 514.975 312.055 514.975C308.91 518.118 303.637 516.681 303.637 512.161C303.637 507.82 305.135 504.767 305.135 500.965C308.97 497.133 305.255 491.386 302.319 488.452C298.424 484.56 296.717 492.523 296.717 495.337C296.717 500.426 296.717 505.545 296.717 510.634C296.717 513.298 296.297 514.316 298.214 516.232C300.282 518.297 301.66 517.1 303.637 519.076ZM903.294 563.679C903.294 563.051 902.665 564.128 903.294 563.679ZM917.105 548.382C917.105 547.754 916.686 548.831 917.105 548.382ZM829.535 425.977C829.535 421.786 830.494 419.092 825.221 419.092C823.454 419.092 822.615 423.912 822.615 425.977C822.615 428.282 822.615 430.587 822.615 432.862C826 432.862 827.378 428.132 829.535 425.977ZM1046.53 591.489C1044.34 593.674 1040.69 595.351 1043.71 598.374C1043.71 600.679 1043.71 602.984 1043.71 605.259C1043.71 607.624 1040.12 606.546 1038.11 606.546C1035.44 606.546 1032.72 605.02 1031.22 606.546C1029.81 607.953 1027.71 609.36 1025.62 609.36C1022.41 612.593 1017.44 614.3 1017.44 619.059C1019.68 619.059 1029.96 614.779 1029.96 617.772C1027.86 619.868 1028.46 621.933 1028.46 624.897C1028.46 627.142 1026.81 628.758 1025.65 630.495C1021.63 630.495 1022.5 632.8 1018.76 628.998C1016.27 626.513 1015.34 625.585 1013.15 623.4C1007.07 617.353 1003.96 627.711 1000.63 627.711C997.844 627.711 996.107 628.998 993.74 628.998C991.643 628.998 991.643 624.897 993.74 624.897C995.478 622.292 1000.51 623.071 996.556 619.089C993.95 619.089 992.871 618.67 990.954 620.586C988.887 622.682 987.988 624.538 985.561 622.083C982.985 622.083 981.277 621.694 979.959 619.059C974.536 615.407 978.461 610.797 978.461 606.546C975.435 606.546 975.076 603.972 971.57 603.972C970.162 605.349 968.365 604.78 967.466 606.546C964.141 606.546 963.152 607.415 963.152 603.972C961.714 602.535 960.336 601.727 960.336 599.661C957.939 597.267 955.393 592.776 960.336 592.776C963.721 592.776 969.114 593.914 971.57 591.489C975.944 591.489 976.843 585.203 979.989 583.077C983.794 583.077 986.22 584.364 989.696 584.364C992.482 587.148 996.616 587.208 999.402 589.962C1001.2 591.758 1003.69 594.064 1006.29 594.064C1006.29 592.148 1010.31 591.549 1011.9 589.962C1013.66 588.196 1013.18 586.729 1013.18 584.364C1015.43 582.149 1015.52 578.497 1013.18 576.162C1010.91 576.162 1009.35 578.677 1007.79 580.263C1003.66 580.263 1002.19 580.503 1002.19 576.162C1002.19 573.708 1000.69 572.121 1000.69 569.038C998.653 567.002 992.482 564.038 992.482 569.038C997.515 569.038 994.759 573.348 990.984 573.348C988.827 573.348 985.591 569.547 985.591 574.636C978.491 579.365 978.042 571.462 974.387 567.75C971.001 567.75 966.447 568.349 964.68 571.852C961.624 573.887 961.534 576.162 957.55 576.162C955.453 578.258 950.03 578.318 947.843 576.162C945.536 576.162 943.229 576.162 940.952 576.162C931.935 576.162 947.633 566.703 949.371 564.966C950.779 563.559 954.254 560.865 956.261 560.865C957.999 558.261 960.935 556.165 963.152 553.98C966.088 549.58 972.769 542.904 977.173 539.971C977.173 538.504 979.599 534.582 980.528 533.654C981.337 532.846 982.775 528.565 982.775 527.488C982.775 518.357 971.271 526.2 967.466 526.2C965.609 526.829 960.156 531.439 959.048 533.085C956.801 534.193 951.917 539.192 951.917 541.497C947.184 543.832 939.934 557.093 934.002 551.196C928.28 551.196 924.295 559.997 924.295 564.996C918.513 568.858 911.982 569.098 904.672 569.098C901.946 571.852 900.148 575.144 897.782 577.509C894.995 580.293 897.452 583.107 892.179 583.107C890.322 584.963 888.045 583.407 886.787 585.921C886.787 588.675 886.787 591.429 886.787 594.153C886.787 597.267 887.356 597.656 885.289 599.691C884.001 600.979 881.963 600.919 881.184 602.505C878.368 604.361 875.582 605.529 875.582 601.218C875.582 597.985 875.582 594.752 875.582 591.519C875.582 588.286 878.398 584.664 878.398 581.61C878.398 578.527 879.686 576.701 879.686 573.408C881.664 570.445 882.592 567.691 885.289 564.996C887.715 562.572 888.105 560.147 888.105 556.585C888.105 554.519 889.393 553.591 889.393 551.196C889.393 549.34 889.393 547.454 889.393 545.598C891.251 542.814 890.891 540.719 890.891 537.187C890.891 533.804 892.179 531.259 892.179 527.488C892.179 523.985 893.677 522.369 893.677 519.076C893.677 515.783 892.599 510.215 894.966 507.88C894.966 505.156 894.007 501.324 896.463 499.678C896.463 496.265 897.752 494.469 897.752 491.266C897.752 490.218 899.399 483.632 900.568 482.854C900.568 480.699 906.17 472.975 906.17 477.466C906.17 482.016 903.054 481.297 907.458 485.668C916.686 485.668 912.851 474.233 908.956 470.371C902.605 474.592 903.624 466.27 908.956 466.27C913.33 466.27 915.847 461.81 915.847 457.858C915.847 455.793 913.48 453.937 911.653 453.128C909.555 452.2 907.428 454.655 906.14 456.571C906.14 463.426 903.324 459.894 903.324 455.284C903.324 451.123 903.324 446.962 903.324 442.771C901.976 441.454 900.508 439.089 900.508 437.173C900.508 431.725 903.594 429.779 907.398 425.977C909.076 424.271 909.945 421.547 911.713 420.379C911.713 418.224 908.926 416.308 907.398 414.781C902.755 410.141 910.754 409.393 913.001 407.896C913.001 405.531 911.713 403.855 911.713 401.011C913.72 399.005 915.308 398.497 917.105 396.7C917.105 392.569 909.945 391.073 907.398 388.498C907.398 384.487 910.215 379.997 910.215 375.985C910.215 371.615 915.487 371.645 918.633 370.387C923.307 363.353 921.449 351.947 921.449 343.266C921.449 339.374 922.707 332.849 919.951 330.095C919.951 326.023 920.73 321.264 924.265 318.899C922.228 317.522 921.449 313.091 921.449 310.697C920.011 309.26 918.633 305.518 918.633 303.572C918.633 302.195 918.633 300.848 918.633 299.471C918.633 297.196 917.135 297.435 917.135 295.16C917.135 292.586 917.764 290.191 915.847 288.275C915.847 283.665 915.847 279.085 915.847 274.475C915.847 272.11 917.135 270.374 917.135 267.59C920.491 267.59 922.528 267.59 925.554 266.093C928.879 266.093 930.377 267.59 933.972 267.59C937.088 270.703 935.2 281.48 932.474 284.174C932.474 295.13 932.474 306.057 932.474 317.013C932.474 322.73 932.474 328.478 932.474 334.196C932.474 337.069 931.186 338.417 931.186 341.32C931.186 342.697 931.186 344.044 931.186 345.421C931.186 347.427 929.688 347.517 929.688 349.523C929.688 352.756 929.688 355.989 929.688 359.222C929.688 364.58 928.549 374.518 935.29 374.518C938.556 374.518 940.683 374.429 943.709 373.231C945.267 370.926 945.866 368.292 947.813 366.346C950.24 362.754 956.951 357.126 961.834 362.035C964.231 364.43 964.77 368.831 968.724 364.849C971.151 362.425 973.038 360.269 973.038 364.849C974.297 367.424 978.821 366.346 981.217 366.346C984.902 366.346 985.621 364.52 988.108 362.035C990.624 362.035 990.475 360.539 992.422 359.222C993.8 359.222 995.148 359.222 996.526 359.222C998.384 361.078 1002.34 362.035 1004.94 362.035C1007.22 359.76 1009.29 345.661 1014.65 351.049C1014.65 353.773 1014.65 356.497 1014.65 359.251C1014.65 362.544 1011.84 361.287 1011.84 364.849C1015.19 364.849 1018.73 365.747 1018.73 368.95C1018.73 372.633 1020.94 374.548 1024.33 374.548C1024.33 370.387 1028.61 366.346 1032.75 366.346C1032.75 368.591 1029.15 374.548 1034.03 374.548C1037.87 378.38 1040.93 373.321 1040.93 380.146C1038.62 382.451 1034.3 385.744 1031.22 385.744C1025.95 391.013 1014.62 390.893 1014.62 401.041C1014.62 403.226 1013.12 403.945 1013.12 406.429C1010.79 408.764 1012.64 409.243 1009.02 409.243C1007.13 407.357 1003.33 403.855 1000.6 403.855C1000.6 407.298 998.024 410.141 998.024 413.554C1000.63 413.554 1005.42 418.912 1007.73 420.439C1009.53 420.439 1011.33 420.439 1013.12 420.439C1015.25 420.439 1015.31 419.152 1017.44 419.152C1020.04 419.152 1023.91 416.577 1025.62 414.841C1026.69 413.764 1032.75 407.627 1032.75 412.027C1034.87 414.153 1036.85 417.535 1036.85 420.439C1036.85 425.678 1034.45 421.936 1031.25 421.936C1029.39 422.834 1029.96 424.42 1029.96 426.037C1029.96 428.641 1031.91 427.534 1034.06 427.534C1036.1 427.534 1036.88 432.114 1036.88 434.419C1042.21 437.053 1035.59 449.357 1035.59 452.53C1035.59 458.786 1042.48 463.336 1042.48 469.114C1038.71 472.856 1026.81 473.694 1031.28 480.31C1031.28 482.106 1035.59 487.195 1036.88 488.512C1039.67 491.296 1039.91 494.349 1042.48 496.924C1042.48 499.738 1042.48 502.522 1042.48 505.335C1042.48 508.509 1040.99 510.095 1040.99 513.538C1042.9 515.454 1043.8 519.225 1043.8 521.949C1043.8 524.225 1045.3 523.985 1045.3 526.26C1045.3 527.637 1045.3 528.984 1045.3 530.361C1047.4 532.427 1046.59 535.899 1046.59 538.773C1046.59 541.168 1046.35 541.108 1048.09 542.874C1048.09 545.688 1048.09 548.472 1048.09 551.286C1045.3 554.1 1048.36 556.674 1043.77 556.674C1040.45 556.674 1038.38 553.86 1035.56 556.674C1035.56 560.835 1035.56 564.996 1035.56 569.187C1033.11 571.642 1029.18 570.475 1027.14 573.498C1027.14 580.593 1028.16 586.52 1023.04 591.609C1023.04 595.201 1028.43 594.273 1028.43 598.494C1031.1 601.188 1033.83 602.805 1036.85 599.781C1040.27 596.398 1035.08 594.632 1038.14 591.579C1039.73 589.992 1044.4 587.268 1046.56 587.268C1051.98 587.178 1047.91 590.142 1046.53 591.489ZM933.942 427.474C935.62 424.959 939.844 425.438 942.151 423.163C945.147 420.17 943.858 417.386 946.465 414.751C947.963 413.255 951.857 408.555 951.857 406.34C950.12 404.633 949.91 402.897 947.753 405.052C945.656 405.052 944.937 405.801 944.937 407.866C942.151 407.866 941.372 402.987 939.335 400.981C939.335 398.377 934.991 393.857 932.444 393.857C932.174 400.263 931.935 406.699 931.665 413.105C931.515 416.577 928.939 427.474 933.942 427.474ZM929.628 434.359C930.796 434.958 933.073 438.67 933.942 439.957C936.069 436.784 936.758 436.814 936.758 432.832C935.021 431.096 931.156 428.103 931.156 432.832C930.617 433.371 930.107 433.88 929.628 434.359ZM921.419 520.572C922.887 518.357 922.108 514.975 918.603 514.975C918.393 515.094 918.393 515.154 918.423 515.154C916.027 517.07 918.843 520.572 921.419 520.572ZM914.319 526.2C914.319 529.164 916.326 529.014 918.633 529.014C921.18 525.183 917.135 527.877 917.135 524.704C915.487 524.674 914.319 524.344 914.319 526.2ZM903.294 563.679C903.294 560.117 899.729 561.374 897.692 559.369C892.149 564.877 897.332 563.32 900.508 566.493C901.287 565.415 902.216 564.487 903.294 563.679ZM917.105 548.382C917.105 543.623 908.117 545.568 904.582 545.568C899.13 551.106 914.828 550.627 917.105 548.382ZM924.235 539.971C921.539 538.174 919.232 535.869 915.817 535.869C913.36 535.869 913.51 536.139 911.713 534.373C908.627 534.373 908.627 535.869 906.11 535.869C906.11 542.784 918.154 543.742 922.707 541.467C923.217 540.988 923.726 540.479 924.235 539.971ZM974.267 470.371C974.267 463.007 967.316 463.486 961.744 463.486C956.921 468.365 966.477 468.216 968.634 470.371C968.634 474.682 959.737 474.203 957.43 471.868C955.872 471.868 951.827 464.294 951.827 462.169C951.827 459.505 951.408 458.487 953.325 456.571C955.542 456.571 957.43 454.715 957.43 452.47C957.43 447.111 948.202 449.806 946.435 452.47C943.469 452.47 942.96 451.811 940.833 449.656C940.833 446.962 938.016 446.812 938.016 444.058C934.212 438.37 932.324 442.591 929.598 445.345C929.598 453.428 925.494 460.672 925.494 469.054C925.494 473.724 924.205 476.867 924.205 481.567C924.205 483.782 922.707 484.59 922.707 487.165C922.707 490.428 923.337 490.577 925.524 492.763C931.006 492.763 931.336 499.887 933.942 502.462C933.942 506.114 933.942 509.796 933.942 513.448C933.942 516.501 932.444 518.118 932.444 520.572C932.444 525.153 931.156 528.954 931.156 533.085C931.156 537.306 930.137 542.156 932.444 545.598C935.051 541.677 939.874 537.097 938.915 532.068C937.687 525.542 939.335 521.022 939.335 514.975C942.99 511.352 946.525 506.473 950.539 502.462C950.539 500.606 951.468 498.151 949.251 498.151C946.854 498.151 945.416 498.63 943.649 496.864C939.514 496.864 939.874 487.883 942.151 485.668C944.667 483.183 949.88 481.567 953.355 481.567C960.755 481.567 974.267 480.16 974.267 470.371ZM975.555 438.46C975.555 435.107 972.829 434.359 970.162 434.359C967.436 431.605 963.032 432.114 963.032 436.574C963.032 439.388 962.463 440.705 964.53 442.771C966.537 442.771 966.627 441.274 968.634 441.274C971.6 441.274 973.578 440.436 975.555 438.46ZM983.973 446.872C982.266 444.297 977.892 444.866 981.157 448.159C982.086 447.68 983.015 447.261 983.973 446.872ZM999.282 435.676C999.282 432.742 996.916 431.785 995.178 434.389C991.074 435.736 995.508 438.58 996.466 439.987C997.785 438.011 999.282 438.191 999.282 435.676ZM1004.88 606.576C1004.88 603.583 1001.83 599.931 999.282 602.475C996.676 605.05 996.466 605.828 996.466 609.36C998.923 611.845 1000.33 615.228 1003.36 612.174C1003.39 609.959 1004.88 609.151 1004.88 606.576ZM1038.11 576.192C1033.08 576.192 1035.38 578.946 1032.72 581.58C1032.72 586.34 1033.68 583.077 1036.82 583.077C1039.7 583.077 1042.42 581.551 1042.42 578.976C1042.42 575.384 1041.43 576.192 1038.11 576.192ZM1011.81 327.251C1014.83 327.251 1011.81 324.197 1011.81 327.251ZM271.731 431.575C275.206 431.575 271.731 424.959 271.731 431.575ZM981.157 448.159C982.026 447.74 980.738 447.74 981.157 448.159ZM965.848 343.835C965.848 344.284 965.429 343.416 965.848 343.835ZM968.664 343.835C968.664 342.039 968.664 340.243 968.664 338.446C965.099 338.446 962.643 340.632 965.848 343.835C965.848 346.469 968.664 346.469 968.664 343.835ZM1035.53 395.353C1035.53 398.407 1035.38 403.765 1031.22 403.765C1031.22 410.83 1040.93 400.742 1040.93 396.641C1040.93 392.659 1035.53 390.264 1035.53 395.353ZM993.68 658.095C993.68 662.046 994.699 660.909 997.994 660.909C1001.38 660.909 1002.1 660.19 1002.1 656.808C1002.1 651.33 993.68 654.952 993.68 658.095ZM918.603 514.975C918.513 515.034 918.483 515.094 918.423 515.154C918.513 515.184 918.903 514.975 918.603 514.975ZM1038.11 614.988C1033.32 614.988 1032.72 614.06 1032.72 619.089C1034.72 619.089 1034.81 620.586 1036.82 620.586C1039.49 620.586 1040.12 619.089 1042.42 619.089C1042.42 616.365 1039.76 616.635 1038.11 614.988ZM1023.01 656.808C1018.31 656.808 1020.19 648.995 1020.19 645.612C1016.39 643.097 1013.81 643.038 1008.99 643.038C1008.99 649.953 1012.16 644.684 1015.88 648.426C1015.88 652.347 1019.27 654.712 1015.88 658.125C1014.02 659.981 1014.59 661.118 1014.59 663.723C1014.59 668.782 1014.53 666.477 1017.41 669.321C1019.3 669.321 1019.62 670.608 1021.51 670.608C1024.51 670.608 1025.95 669.321 1028.4 669.321C1029.57 667.525 1031.28 665.16 1032.72 663.723C1035.38 661.089 1032.72 660.999 1032.72 658.125C1028.94 658.095 1026.78 656.808 1023.01 656.808ZM901.796 591.489C901.796 596.668 899.22 601.308 899.22 606.576C899.22 610.139 897.722 611.695 897.722 614.988C897.722 617.862 898.501 621.305 896.433 623.4C896.433 628.818 894.756 638.697 901.826 638.697C903.264 638.697 904.702 638.697 906.14 638.697C908.447 638.697 906.709 637.38 908.956 635.883C908.956 632.65 908.956 629.417 908.956 626.184C906.62 624.627 907.458 621.634 907.458 619.059C907.458 617.682 909.076 612.025 910.275 610.857C910.275 604.93 914.379 600.35 914.379 594.034C914.379 591.309 914.379 588.585 914.379 585.831C914.379 581.461 913.39 580.563 910.275 577.419C903.833 577.479 905.571 587.747 901.796 591.489ZM887.985 623.4C894.037 623.4 887.985 626.843 887.985 623.4ZM893.587 606.576C895.625 606.576 894.876 605.708 894.876 604.002C891.91 604.002 887.865 606.576 893.587 606.576ZM835.138 462.169C835.138 464.683 836.426 467.288 836.426 470.371C836.426 474.113 836.426 477.855 836.426 481.567C836.426 487.943 833.61 493.511 833.61 499.678C833.61 503.479 832.321 505.904 832.321 509.377C832.321 514.047 832.321 518.717 832.321 523.386C832.321 527.996 832.321 532.577 832.321 537.187C832.321 540.479 830.823 542.096 830.823 545.598C827.708 548.712 829.535 559.249 829.535 563.709C832.022 566.164 830.374 570.445 832.351 573.408C832.351 577.09 833.46 581.82 830.853 584.394C830.853 588.196 829.565 590.322 829.565 594.093C826.899 596.758 829.355 599.931 826.749 602.505C826.749 606.457 825.251 608.702 825.251 612.204C825.251 613.881 824.023 619.239 822.645 620.616C822.645 623.49 821.446 628.13 819.829 630.525C819.829 633.937 817.012 635.524 817.012 638.727C817.012 642.259 812.698 644.864 812.698 648.426C810.451 650.641 809.013 654.293 807.306 656.838C807.306 660.52 801.703 661.448 801.703 665.25C798.678 667.255 795.861 670.847 793.285 673.452C789.001 677.733 781.241 679.05 775.16 679.05C768.928 679.05 766.651 687.461 760.061 687.461C754.308 687.461 746.04 692.012 746.04 698.448C741.156 703.357 727.915 694.945 727.915 705.572C727.915 708.177 728.304 709.075 726.417 710.961C722.612 710.961 724.709 710.571 722.312 708.147C722.312 705.123 720.005 701.262 716.71 701.262C712.875 701.262 709.73 701.351 707.003 704.076C704.547 706.53 700.772 705.572 697.297 705.572C693.791 702.04 689.058 706.919 686.302 709.673C683.366 711.649 681.628 712.487 677.883 712.487C675.307 712.487 675.337 713.775 672.281 713.775C670.423 713.775 668.536 713.775 666.679 713.775C664.911 713.775 659.339 714.852 658.47 716.588C650.83 721.647 650.201 730.598 640.135 730.598C635.521 730.598 634.742 729.161 634.742 724.91C634.742 720.091 635.431 717.277 631.926 713.775C628.84 713.775 625.305 710.961 622.429 710.961C620.452 708.985 619.044 703.148 615.299 706.859C613.621 708.536 614.82 709.673 612.483 709.673C610.566 709.673 609.906 710.422 609.906 708.177C609.906 703.626 604.694 704.076 601.488 704.076C598.013 701.771 596.485 697.19 591.781 697.19C587.108 697.19 582.434 697.19 577.761 697.19C570.63 697.19 563.44 696.682 558.347 691.593C551.816 685.067 538.934 693.149 533.331 687.491C530.156 687.491 527.16 688.24 524.913 685.995C522.097 685.995 518.592 686.803 516.495 684.707C510.623 684.707 502.743 680.427 498.579 676.296C492.348 672.135 488.663 670.817 488.663 662.495C488.663 659.442 487.315 653.186 490.161 651.3C493.576 647.887 495.763 646.57 495.763 641.601C495.763 637.32 485.847 627.082 481.743 625.017C481.743 621.514 480.455 618.91 480.455 615.108C478.477 613.791 478.957 613.072 478.957 611.007C478.957 608.792 477.698 608.223 476.14 606.696C473.414 604.002 470.748 602.415 470.748 598.494C470.748 595.261 470.748 592.028 470.748 588.795C472.426 587.119 473.564 581.341 473.564 579.096C473.564 575.174 473.534 571.941 470.748 569.187C470.748 566.523 467.932 563.919 467.932 560.985C467.932 556.824 467.932 552.663 467.932 548.472C467.932 546.676 468.86 539.402 470.748 538.773C470.748 536.109 472.725 531.768 474.852 530.361C477.339 527.877 476.59 524.344 478.957 521.949C481.293 519.615 484.05 519.136 487.374 519.136C491.179 519.136 497.171 517.938 499.897 520.632C503.253 520.632 505.11 521.92 508.316 521.92C510.173 523.776 513.768 524.733 516.524 524.733C518.172 526.38 523.355 527.547 525.602 527.547C527.909 527.547 534.38 526.5 536.148 524.733C539.263 524.733 542.139 523.536 544.566 521.92C550.468 521.92 555.561 515.933 555.561 510.724C549.959 510.724 544.356 510.724 538.724 510.724C534.859 510.724 531.264 509.437 527.729 509.437C521.857 509.437 516.674 501.025 511.132 501.025C508.825 498.72 504.511 496.924 501.215 496.924C499.298 496.924 497.111 491.685 497.111 490.039C494.625 487.554 494.205 484.351 491.509 481.627C490.011 480.13 486.116 475.43 486.116 473.215C483.54 471.479 480.514 466.39 480.514 463.516C480.514 462.049 478.897 456.511 477.698 455.314C477.698 450.973 478.987 448.279 478.987 444.118C479.586 443.22 480.754 440.526 481.803 440.017C481.803 437.981 481.323 437.023 483.301 435.706C483.301 432.413 486.116 431.036 486.116 427.504C487.704 425.139 488.693 421.996 488.693 419.092C490.34 416.637 490.34 412.476 493.007 410.68C493.007 407.088 497.111 405.621 497.111 402.268C500.197 399.185 502.234 395.862 505.53 392.569C507.237 390.863 506.578 390.205 508.346 388.468C510.353 388.468 511.072 387.031 512.45 385.654C515.686 385.654 517.453 381.344 520.869 381.344C522.606 379.607 526.591 378.769 529.077 378.769C531.804 374.668 546.903 377.272 551.516 377.272C558.227 377.272 561.523 385.684 568.114 385.684C570.75 388.319 574.944 386.942 577.82 389.785C580.397 389.785 584.232 391.881 586.239 393.887C592.86 393.887 593.129 404.573 593.129 409.183C593.129 412.476 595.946 415.29 595.946 419.092C597.953 420.11 598.762 425.348 598.762 427.504C598.762 430.048 600.05 432.623 600.05 435.706C602.327 437.981 601.548 440.975 601.548 444.118C601.548 448.279 601.548 452.44 601.548 456.631C598.912 458.367 600.469 462.438 598.732 465.043C598.732 468.665 597.204 470.67 594.627 473.245C592.051 474.951 591.452 479.232 589.025 481.657C589.025 487.135 588.785 490.308 584.921 494.17C583.363 495.217 581.925 496.954 580.607 498.271C578.869 500.007 578.21 499.348 576.502 501.085C573.087 501.085 571.379 505.395 568.084 505.395C565.987 507.491 561.193 507.132 561.193 510.784C561.193 516.95 577.401 506.683 579.318 506.683C583.063 502.941 590.403 499.797 595.916 499.797C595.916 506.922 596.784 514.256 591.811 519.195C591.811 521.5 589.175 525.931 587.497 527.607C587.497 530.96 586.209 532.816 586.209 536.019C586.209 539.671 584.921 542.904 584.921 547.005C584.921 548.742 586.179 554.07 587.497 555.417C587.497 562.901 596.545 565.535 600.02 570.714C602.746 573.438 603.226 573.528 607.15 573.528C608.648 571.253 609.307 570.115 607.15 567.93C603.645 565.625 602.836 562.302 600.02 559.518C600.02 557.812 597.084 552.513 595.916 551.316C595.916 548.083 595.916 544.85 595.916 541.617C595.916 534.582 598.432 527.128 605.622 523.506C607.63 520.543 611.225 518.926 611.225 515.094C611.225 511.981 610.296 507.611 612.513 505.395C612.513 502.132 614.52 497.792 616.827 495.487C618.235 494.08 622.429 489.26 622.429 487.284C626.983 482.704 633.065 475.939 627.612 470.461C627.612 466.629 625.036 464.653 625.036 460.762C621.501 457.23 625.036 453.278 625.036 449.776C625.036 443.968 633.844 438.58 638.847 438.58C641.154 438.58 643.46 438.58 645.737 438.58C647.894 438.58 647.984 440.077 650.051 440.077C652.149 440.077 656.942 443.459 656.942 445.465C660.956 449.506 660.867 457.978 668.147 457.978C669.015 459.684 672.161 460.672 673.749 462.289C673.749 463.666 673.749 465.013 673.749 466.39C673.749 470.641 674.019 471.359 676.355 474.801C678.512 474.801 681.958 479.412 681.958 481.687C684.085 483.812 685.073 488.422 687.56 490.098C693.402 495.966 699.184 502.372 705.685 506.683C707.872 506.683 708.351 508.06 709.789 509.496C711.976 509.496 712.276 509.197 713.894 510.784C716.71 510.784 719.286 513.598 722.312 513.598C725.608 513.598 728.274 516.411 732.019 516.411C734.296 516.411 734.056 517.908 736.333 517.908C738.131 517.908 739.928 517.908 741.726 517.908C744.062 517.908 748.466 515.244 750.144 513.598C752.511 511.233 756.855 512.31 760.061 512.31C761.469 509.496 768.599 510.454 771.055 508C775.22 503.809 768.179 502.701 765.453 505.425C762.098 505.425 760.42 506.712 757.274 506.712C754.159 508.778 755.657 509.526 751.253 509.526C748.077 509.526 744.901 509.526 741.726 509.526C735.374 509.526 730.251 505.425 723.84 505.425C719.256 500.875 711.767 500.246 707.003 495.517C705.236 493.75 703.408 493.421 701.401 491.416C699.723 489.739 700.472 488.991 698.795 487.314C695.829 485.339 696.847 481.268 694.48 478.903C694.48 475.55 693.192 473.694 693.192 470.491C693.192 467.827 690.376 465.222 690.376 462.289C690.376 459.894 689.268 454.296 687.56 452.59C687.56 449.476 686.272 446.752 686.272 444.178C686.272 438.131 686.272 432.114 686.272 426.067C687.65 424.69 688.848 419.601 688.848 417.865C690.496 415.41 690.496 411.01 693.162 409.243C693.162 407.058 696.847 402.328 698.765 401.041C698.765 398.826 702.659 394.126 704.157 392.629C706.794 389.995 711.287 386.702 711.287 382.93C713.384 380.835 716.38 376.045 719.496 376.045C721.174 373.561 725.248 374.548 727.915 374.548C731.809 374.548 734.955 372.453 739.658 373.89C743.403 375.057 747.687 374.548 751.642 374.548C754.308 374.548 758.533 378.26 758.533 373.261C758.533 366.017 769.647 367.663 775.13 367.663C778.935 367.663 781.751 370.477 785.046 370.477C787.263 372.692 791.547 373.531 793.255 376.075C794.543 377.392 796.011 379.158 797.569 380.176C797.569 382.99 797.569 385.774 797.569 388.588C795.712 388.588 793.824 388.588 791.967 388.588C789.69 388.588 789.93 387.091 787.653 387.091C784.837 384.217 780.942 383.2 777.946 380.206C774.65 380.206 773.272 377.392 769.737 377.392C765.034 377.392 768.239 382.99 771.025 382.99C774.411 382.99 776.688 385.265 779.444 387.091C782.53 390.205 784.327 393.467 787.623 396.79C787.623 400.951 792.206 400.712 794.753 402.388C799.067 402.388 798.917 406.19 801.643 407.986C801.643 410.261 802.422 415.051 804.46 416.398C804.46 423.433 807.276 428.881 807.276 435.796C807.276 438.939 806.587 442.681 807.935 445.525C809.912 449.716 807.276 453.098 807.276 456.721C807.276 459.954 807.276 463.187 807.276 466.42C804.909 467.976 803.231 472.467 801.673 474.831C798.318 477.047 797.419 480.34 794.783 483.034C791.697 485.069 789.001 488.811 786.364 491.446C784.088 493.691 779.863 499.857 776.658 499.857C774.77 501.145 774.351 502.312 776.478 503.3C778.785 504.378 778.485 502.641 780.762 502.641C783.279 502.641 787.024 498.48 789.181 497.043C791.937 494.319 793.225 491.505 796.071 488.632C796.071 485.937 802.153 480.489 804.49 478.933C805.658 477.765 811.32 476.119 812.698 476.119C814.736 474.083 817.012 470.611 817.012 467.916C817.012 464.504 818.301 462.678 818.301 459.505C822.405 453.248 835.138 453.488 835.138 462.169ZM512.45 647.109C512.45 641.72 505.47 642.918 502.743 645.612C502.743 648.276 503.163 649.294 501.245 651.21C501.245 654.652 504.002 653.156 505.56 655.521C506.938 653.425 510.293 648.156 512.45 647.109ZM654.156 474.682C654.156 478.124 658.979 480.04 661.286 481.567C661.286 484.291 664.821 486.626 666.679 488.452C670.184 492.014 675.097 498.69 675.097 503.749C675.097 508.479 673.419 514.795 677.913 517.759C677.913 520.153 681.538 523.327 683.515 524.644C683.515 529.583 688.908 527.757 688.908 523.356C688.908 521.321 686.242 517.669 684.804 516.232C684.804 513.208 681.988 510.634 681.988 507.82C681.988 505.994 680.55 502.282 679.171 500.935C679.171 497.672 677.883 495.816 677.883 492.733C677.883 489.679 675.127 488.272 673.779 485.608C668.536 482.106 670.603 475.161 668.176 470.311C668.176 465.252 655.893 472.107 654.156 474.682ZM616.857 559.369C620.452 559.369 622.819 558.081 626.833 558.081C632.196 558.081 637.588 558.081 642.951 558.081C644.09 556.345 649.452 553.98 651.37 553.98C656.103 546.945 664.042 560.865 668.206 560.865C669.495 563.44 674.708 563.949 676.415 566.463C677.973 566.463 683.545 567.87 683.545 569.038C691.904 569.038 694.54 560.147 694.54 552.454C691.095 552.454 690.616 555.507 688.938 558.051C684.894 558.051 683.635 558.171 680.759 555.237C680.759 550.358 672.341 546.107 672.341 541.437C669.764 537.606 662.964 533.026 658.53 533.026C654.395 533.026 646.846 532.277 644.509 535.839C640.375 535.839 638.367 537.636 634.802 535.839C631.417 535.839 630.668 533.026 627.672 533.026C624.646 528.445 616.527 527.607 612.573 531.529C609.307 534.792 602.866 540.09 602.866 545.538C602.866 546.317 599.181 551.136 602.866 551.136C602.866 554.669 604.724 555.567 607.18 558.021C611.195 558.081 612.932 563.29 616.857 559.369ZM718.238 670.578C728.753 660.041 708.232 658.125 702.899 655.491C695.769 655.491 690.855 647.318 684.774 644.295C682.677 644.295 680.52 638.727 677.883 637.41C675.726 635.254 672.371 631.782 670.993 628.998C666.828 628.998 662.664 628.998 658.47 628.998C654.905 628.998 653.347 630.495 650.051 630.495C646.307 630.495 641.483 631.632 638.847 628.998C635.671 628.998 633.065 627.711 630.428 627.711C627.882 627.711 627.193 626.214 625.036 626.214C623.238 626.214 621.441 626.214 619.643 626.214C617.127 626.214 612.992 627.262 611.225 629.028C606.401 629.028 597.384 630.525 594.627 634.626C592.89 635.195 587.497 642.768 587.497 644.325C584.951 645.612 587.617 647.139 584.921 647.139C583.902 647.468 581.236 649.025 580.607 649.953C577.521 649.953 573.716 652.048 573.716 655.55C569.732 657.526 568.114 658.873 568.114 663.753C571.02 666.656 573.416 668.572 576.532 670.638C580.127 670.638 582.374 672.374 584.951 674.949C589.894 679.918 592.051 685.935 600.05 685.935C602.387 685.935 602.986 687.432 605.652 687.432C607.51 687.432 609.397 687.432 611.255 687.432C617.576 687.432 623.867 687.432 630.189 687.432C634.203 687.432 637.499 688.719 641.663 688.719C644.839 688.719 647.834 687.97 650.081 690.215C653.826 690.215 656.043 691.503 659.788 691.503C662.275 693.987 665.33 692.401 668.206 694.317C674.678 694.317 681.149 694.317 687.62 694.317C694.6 694.317 700.233 691.084 705.745 687.432C707.752 684.438 710.179 681.474 712.636 679.02C712.606 676.415 716.35 672.464 718.238 670.578C718.418 670.398 718.328 670.488 718.238 670.578ZM723.84 694.317C723.84 691.383 721.264 690.455 719.526 693.029C719.526 696.113 722.013 696.113 723.84 694.317ZM270.443 444.058C270.443 448.219 270.443 452.38 270.443 456.571C270.443 458.427 269.544 460.672 271.731 460.672C274.157 460.672 275.835 460.852 275.835 457.858C275.835 454.805 276.794 450.404 274.547 448.159C274.517 443.669 274.068 438.61 270.443 444.058ZM1040.93 651.21C1041.34 651.21 1040.48 650.761 1040.93 651.21ZM274.517 398.167C276.764 395.952 277.333 385.654 273.229 385.654C269.064 388.438 268.915 398.167 274.517 398.167ZM277.333 413.464C285.512 413.464 277.333 405.262 277.333 413.464ZM506.848 513.478C510.922 513.478 513.529 517.789 518.052 517.789C521.408 517.789 525.362 518.716 527.759 516.292C527.759 513.867 520.629 512.191 518.052 512.191C515.326 509.437 511.282 510.814 508.346 507.88C504.601 507.88 499.927 501.444 499.927 498.181C499.927 495.846 493.726 496.894 491.509 496.894C491.509 500.576 494.535 503.988 497.111 506.593C499.777 506.563 504.9 511.532 506.848 513.478ZM875.462 631.812C875.163 631.902 875.193 631.902 875.282 631.902C873.605 632.59 873.425 634.626 875.462 634.626C877.829 634.596 877.829 631.812 875.462 631.812ZM1040.93 651.21C1038.17 648.456 1035.35 651.24 1038.11 654.024C1040.33 653.994 1045.12 651.21 1040.93 651.21ZM245.397 345.362C245.607 345.362 244.768 344.703 245.397 345.362Z" fill="#272727"/>
</svg>
